<svg xmlns="http://www.w3.org/2000/svg" xmlns:xlink="http://www.w3.org/1999/xlink" viewBox="0 0 500 360"><defs><linearGradient id="a" x1="114.41" y1="267.27" x2="145.87" y2="312.36" gradientTransform="translate(-43.94 60.94) rotate(-13)" gradientUnits="userSpaceOnUse"><stop offset="0" stop-color="#fff" stop-opacity="0"/><stop offset="0.12" stop-color="#fff" stop-opacity="0.02"/><stop offset="0.25" stop-color="#fff" stop-opacity="0.06"/><stop offset="0.37" stop-color="#fff" stop-opacity="0.14"/><stop offset="0.5" stop-color="#fff" stop-opacity="0.26"/><stop offset="0.53" stop-color="#fff" stop-opacity="0.28"/><stop offset="0.58" stop-color="#fff" stop-opacity="0.33"/><stop offset="0.68" stop-color="#fff" stop-opacity="0.46"/><stop offset="0.81" stop-color="#fff" stop-opacity="0.67"/><stop offset="0.96" stop-color="#fff" stop-opacity="0.96"/><stop offset="0.98" stop-color="#fff"/></linearGradient><linearGradient id="b" x1="84.46" y1="191.76" x2="84.46" y2="140.38" xlink:href="#a"/><linearGradient id="c" x1="9.56" y1="259.55" x2="143.69" y2="229.21" gradientTransform="translate(-43.94 60.94) rotate(-13)" gradientUnits="userSpaceOnUse"><stop offset="0" stop-color="#f2693d" stop-opacity="0"/><stop offset="0.12" stop-color="#f2693d" stop-opacity="0.02"/><stop offset="0.25" stop-color="#f2693d" stop-opacity="0.07"/><stop offset="0.38" stop-color="#f2693d" stop-opacity="0.15"/><stop offset="0.51" stop-color="#f2693d" stop-opacity="0.27"/><stop offset="0.64" stop-color="#f2693d" stop-opacity="0.42"/><stop offset="0.77" stop-color="#f2693d" stop-opacity="0.61"/><stop offset="0.89" stop-color="#f2693d" stop-opacity="0.83"/><stop offset="0.98" stop-color="#f2693d"/></linearGradient></defs><title>JRebel</title><path d="M275.63,81.62a101.82,101.82,0,0,0-26.22,23.07c-9.16,11.66-16.78,29.36-15.73,39.85.53,5.32,25.17,3.15,32.51,3.15S275.63,81.62,275.63,81.62Z" style="fill:#fff;stroke:#231f20;stroke-miterlimit:10;stroke-width:4.19448232650757px"/><polygon points="173.62 289.85 65.95 357.22 69.79 271.31 196.02 240.01 173.62 289.85" style="fill:url(#a)"/><polygon points="113.72 191.21 4.16 257.41 96.05 310.45 158.84 200.17 113.72 191.21" style="fill:url(#b)"/><polygon points="109.56 224.46 0 290.65 16.28 361.15 153.66 275.62 109.56 224.46" style="fill:url(#c)"/><path d="M157.53,231.82a33.78,33.78,0,0,0-33.71-13.24c-21.69,4.23-31.72,25.37-32.37,32,4.78-2.57,13.25-4.43,18.07-2.05-20.34,5.46-31,27.45-27.11,52.4,6.79-23.86,58.53-16.48,71.08-25.73,12.89-9.5,14.69-28.92,4-43.38" style="fill:#fff"/><path d="M157.53,231.82a33.78,33.78,0,0,0-33.71-13.24c-21.69,4.23-31.72,25.37-32.37,32,4.78-2.57,13.25-4.43,18.07-2.05-20.34,5.46-31,27.45-27.11,52.4,6.79-23.86,58.53-16.48,71.08-25.73C166.39,265.7,168.19,246.28,157.53,231.82Z" style="fill:#cb6028;stroke:#231f20;stroke-linecap:round;stroke-linejoin:round;stroke-width:4.19448232650757px"/><path d="M159.81,232.2c-5.45-8.23-15.92-9.7-24.53-5.2-23.43,12.27-23.46,44.2-23.46,44.2C123.61,260,140.64,263.78,155,256.8c8.73-4.25,10.25-16.36,4.81-24.59" style="fill:#fff"/><path d="M159.81,232.2c-5.45-8.23-15.92-9.7-24.53-5.2-23.43,12.27-23.46,44.2-23.46,44.2C123.61,260,140.64,263.78,155,256.8,163.73,252.55,165.25,240.43,159.81,232.2Z" style="fill:#da7f56;stroke:#231f20;stroke-linecap:round;stroke-linejoin:round;stroke-width:4.19448232650757px"/><path d="M158.73,234.76c-2.89-5.55-8.35-5.74-14.19-3.8-16.91,5.63-18.68,23.71-18.68,23.71,9-5.43,17.52-1.1,28.21-4.74,5.82-2,7.54-9.63,4.66-15.18" style="fill:#daa48f"/><path d="M158.73,234.76c-2.89-5.55-8.35-5.74-14.19-3.8-16.91,5.63-18.68,23.71-18.68,23.71,9-5.43,17.52-1.1,28.21-4.74C159.9,248,161.62,240.31,158.73,234.76Z" style="fill:none;stroke:#231f20;stroke-linecap:round;stroke-linejoin:round;stroke-width:4.19448232650757px"/><path d="M218.85,236.29S220.66,253.55,217,261s-50.15,32.28-50.15,32.28l12.27-40.05Z" style="fill:#95c11f;stroke:#231f20;stroke-linecap:round;stroke-linejoin:round;stroke-width:4.19448232650757px"/><path d="M182.41,175.89s-14.65-9.45-23-9.57-51.7,29.76-51.7,29.76l41.46,7.32Z" style="fill:#95c11f;stroke:#231f20;stroke-linecap:round;stroke-linejoin:round;stroke-width:4.19448232650757px"/><path d="M151.51,204.75c-2.49-3.29-10.88,9.19-10.88,9.19-1.59,10,18.12,40.75,26.08,42.32,0,0,10.78-1,13.37-5.15S154,208,151.51,204.75" style="fill:#fff;stroke:#231f20;stroke-linecap:round;stroke-linejoin:round;stroke-width:4.19448232650757px"/><path d="M148.3,199.71C324.7,59.44,433,60,435.69,63s-46.85,99.24-253.43,191.82C152.47,234.12,148.3,199.71,148.3,199.71Z" style="fill:#fff;stroke:#231f20;stroke-linecap:round;stroke-linejoin:round;stroke-width:4.19448232650757px"/><path d="M359.39,76.86c48.06-16.23,75-15.35,76.29-13.87s-10.15,25.82-47.12,61.24c-17.29-9.77-27.27-29.91-29.18-47.37" style="fill:#95c11f;stroke:#231f20;stroke-linecap:round;stroke-linejoin:round;stroke-width:4.19448232650757px"/><path d="M188.57,215l2.41-1.24q2,3.89,4.11,7.78c2,3.73-.12,5.29-2.59,6.55l-.78.4-1.06-2,1.25-.64c1.19-.6,1.68-1.3,1-2.52l-3.27-6.22h0l-1.1-2.11" style="fill:#95c11f"/><path d="M192,213.22q3.11,5.9,6.26,11.79l2.43-1.25-2.49-4.65,1.42-.74,4.87,3.41,2.88-1.51-5.49-3.47a3.8,3.8,0,0,0,.47-4.47c-1.05-2-3.32-2.75-5.84-1.43Zm3.47.76,1.52-.79c1.73-.9,2.55-.37,3,.48s.45,1.83-1.21,2.69l-1.61.83Zm15.46,4.4c1.94-1,3-2.69,2.64-4.62l-2.33,1a2,2,0,0,1-1.13,1.83,2.2,2.2,0,0,1-2.94-.85l6-3.2-.34-.62a4.59,4.59,0,0,0-6.51-2,4.48,4.48,0,0,0-1.91,6.47A4.58,4.58,0,0,0,210.93,218.38Zm-3.56-6.79a2.13,2.13,0,0,1,2.72.76l-3.71,2A2.07,2.07,0,0,1,207.37,211.6Zm2.12-7.53q3.19,5.84,6.41,11.66l2.21-1.19-.65-1.17,0,0a3.37,3.37,0,0,0,3.31-.27c2.28-1.24,2.7-4.08,1.46-6.29s-3.76-3.4-6.1-2.13a3.34,3.34,0,0,0-1.86,2.7l0,0-2.5-4.54Zm7.12,2.81a2.45,2.45,0,0,1,3.31,1.27,2.39,2.39,0,0,1-.75,3.48c-1.31.71-2.63,0-3.36-1.29A2.38,2.38,0,0,1,216.61,206.88Zm6.42-.47a4.56,4.56,0,0,0,6.52,1.87c1.92-1.06,2.92-2.74,2.54-4.66l-2.3,1.06a2,2,0,0,1-1.09,1.84,2.19,2.19,0,0,1-2.95-.8l5.93-3.29-.35-.62a4.57,4.57,0,0,0-6.52-1.9A4.48,4.48,0,0,0,223,206.41Zm2.85-4.85a2.12,2.12,0,0,1,2.72.72l-3.66,2A2.07,2.07,0,0,1,225.88,201.55Zm2-7.59q3.29,5.8,6.61,11.59l2.27-1.27q-3.33-5.78-6.63-11.57Z" style="fill:#414141"/><path d="M180.54,233.7c-19.1-23.41-20.21-43.42-20.21-43.42" style="fill:#fff"/><path d="M180.54,233.7c-19.1-23.41-20.21-43.42-20.21-43.42" style="fill:none;stroke:#231f20;stroke-linecap:round;stroke-linejoin:round;stroke-width:4.19448232650757px"/><path d="M183.82,213.11c-9-13.91-12.8-31-12.8-31" style="fill:#fff"/><path d="M180.21,206.89A113.41,113.41,0,0,1,171,182.12" style="fill:none;stroke:#231f20;stroke-linecap:round;stroke-linejoin:round;stroke-width:4.19448232650757px"/><path d="M413.44,63.5c13.93-1.88,21.57-1.28,22.25-.51,2.65,3-46.85,99.24-253.43,191.82a76.1,76.1,0,0,1-9.92-8.23C349.56,164.75,405.85,81.49,413.44,63.5Z" style="fill:#010101;opacity:0.1"/><path d="M244.48,160c10.79,13.25,62.73-11.2,116-54.59A448.87,448.87,0,0,0,404.16,65c-30.28,5.5-81.43,21-149.54,61C243.84,141.74,239.68,154.1,244.48,160Z" style="fill:#010101;opacity:0.1"/><path d="M279.83,97.35c0-12.07-5.24-16.78,10.49-25.17,33-17.59,106.94-27.86,106.22-21.44-1.36,12-56.93,59.19-88.39,78.07s-63.72,45.4-68.16,33.56c-1-2.58-.4-29.19,11.53-47.19" style="fill:#fff;stroke:#231f20;stroke-linecap:round;stroke-linejoin:round;stroke-width:4.19448232650757px"/><path d="M323.93,63.88s1,15.64,11.12,26.06c5.37,5.52,15,9.5,15,9.5s49.29-40.9,46.14-48.24c-3.79-8.85-54.56,6.72-54.56,6.72Z" style="fill:#231f20"/><path d="M315.48,105c-1-.57-1.8-3-2.48-4-1.08-1.56-15.17-9.47-17-14-1.35-3.35-6.73-25.87-10.82-26.74-1.74-.37-3.25-.26-4.83-1-1.95-.87-10.36-4.43-6.91-7.51-1.59-1.88-3.26-4.43.34-5.24-.59-1.09-2.61-2.27-1.71-3.8.56-.95,3.27-1.56,4.35-1.87.27-1.48-1.63-2.9-.11-4.12s4.55-.26,5.91.49,2.75,2.32,4.45,2.65c2.41.46,2.56-2.21,3-3.89.67-2.75,6.12-7.26,8.35-4,.63.92-.59,3-1,4-.79,1.93-.31,3-1,5-.79,2.28-4,16.65-4.38,17.85a2.55,2.55,0,0,0,0,1.57C293,65,298,82,300,85c.87,1.3,14.75,9.06,16,10s3-1,7.12,2.92c2,1.9.68,6.22-1.61,7.37A6.37,6.37,0,0,1,315.48,105Z" style="fill:#231f20"/><path d="M241.3,146.26c-.24,3-.45,6.09-.63,9-.32,5.25-.39,9.79,6.06,9.52,4.4-.19,9.33-3.09,13.33-4.82,5.56-2.41,10.45-5.88,15.46-9.24,7.62-5.11,14.78-10.72,22.48-15.62,9-5.72,18-11.37,26.63-17.63a296.92,296.92,0,0,0,26.5-21.21l-12.58-8.39a222.8,222.8,0,0,1-43,35.65c-15.3,9.56-47.19,19.92-53.78,17.18C241.61,142.56,241.45,144.41,241.3,146.26Z" style="fill:#010101;opacity:0.1"/><path d="M326.65,78.58A333.46,333.46,0,0,1,361.86,62c17.48-6.77,30.51-11.47,30.51-11.47s-17.25-.68-43.87,8.24c-16.53,5.54-23.42,9.28-23.42,9.28Z" style="fill:#fff;opacity:0.26"/><path d="M346.56,56c2.39,6.73-5.34,15.4-17.26,19.36s-23.54,1.72-25.94-5S308.7,54.92,320.63,51,344.17,49.24,346.56,56Z" style="fill:#be1e2d;stroke:#231f20;stroke-miterlimit:10;stroke-width:4.048927750615613px"/><path d="M334.95,174.93c-5.84,0-15-4.7-23.77-12.25C297.6,151,270.73,111.5,269.66,88c-.16-3.45.7-8.24,3-10.6a4.34,4.34,0,0,1,3.18-1.46,5,5,0,0,1,3,1.11l1.25.94-.77,1.36c-2.61,4.62,0,15.67,2.21,21.56,7.51,19.71,17.52,36.18,29,47.61S331.8,166.78,338.84,168l1.26.21.21,1.26a4.5,4.5,0,0,1-.89,3.81,5.52,5.52,0,0,1-4.47,1.7Z" style="fill:#c7ae72"/><path d="M275.79,77.72a3.26,3.26,0,0,1,1.94.76c-3.1,5.47-.06,17.4,2.1,23.07,8.39,22,18.88,37.75,29.36,48.24s21,18.53,29.36,19.92c.38,2.26-1,3.44-3.61,3.44-4.65,0-13.2-3.76-22.61-11.82-13.06-11.19-39.85-50.33-40.9-73.4-.2-4.37,1.39-10.19,4.35-10.19m0-3.56a6.08,6.08,0,0,0-4.47,2c-2.63,2.75-3.62,8-3.44,11.91.66,14.57,10.59,33.09,16.45,42.83,8.24,13.7,18.56,27,25.69,33.12,9.13,7.82,18.68,12.68,24.93,12.68a7.23,7.23,0,0,0,5.83-2.33,6.23,6.23,0,0,0,1.29-5.25l-.42-2.51-2.51-.42c-4.65-.78-13.19-4.69-27.43-18.93-11.26-11.26-21.13-27.5-28.55-47-2.65-6.94-4.29-16.58-2.33-20l1.54-2.73-2.51-1.88a6.74,6.74,0,0,0-4.08-1.47Z" style="fill:#231f20"/><path d="M336.54,56.36c.22,1.69-2.87,3.47-6.92,4s-7.51-.48-7.73-2.17,2.87-3.47,6.92-4S336.32,54.67,336.54,56.36Z" style="fill:#fff"/><path d="M341.24,169.68c-5.84,0-15-4.7-23.77-12.25C303.89,145.79,277,106.25,276,82.75c-.16-3.45.7-8.24,3-10.6a4.34,4.34,0,0,1,3.18-1.46,5,5,0,0,1,3,1.11l1.25.94-.77,1.36c-2.61,4.62,0,15.67,2.21,21.56,7.51,19.71,17.52,36.18,29,47.61s21.35,18.25,28.39,19.43l1.26.21.21,1.26a4.5,4.5,0,0,1-.89,3.81,5.52,5.52,0,0,1-4.47,1.7Z" style="fill:#c7ae72"/><path d="M282.08,72.48a3.26,3.26,0,0,1,1.94.76c-3.1,5.47-.06,17.4,2.1,23.07,8.39,22,18.88,37.75,29.36,48.24s21,18.53,29.36,19.92c.38,2.26-1,3.44-3.61,3.44-4.65,0-13.2-3.76-22.61-11.82-13.06-11.19-39.85-50.33-40.9-73.4-.2-4.37,1.39-10.19,4.35-10.19m0-3.56a6.08,6.08,0,0,0-4.47,2c-2.63,2.75-3.62,8-3.44,11.91.66,14.57,10.59,33.09,16.45,42.83,8.24,13.7,18.56,27,25.69,33.12,9.13,7.82,18.68,12.68,24.93,12.68a7.23,7.23,0,0,0,5.83-2.33,6.23,6.23,0,0,0,1.29-5.25l-.42-2.51-2.51-.42c-4.65-.78-13.19-4.69-27.43-18.93-11.26-11.26-21.13-27.5-28.55-47-2.65-6.94-4.29-16.58-2.33-20l1.54-2.73-2.51-1.88a6.74,6.74,0,0,0-4.08-1.47Z" style="fill:#231f20"/><path d="M329.5,176.44s-9,12.32-8.66,19.47,2.83,11.23,2.83,11.23,6,2.14,5.74-4.42S331,182.95,335,180.39s-8.5-5-8.5-5" style="fill:#c7ae72;stroke:#231f20;stroke-miterlimit:10;stroke-width:3.56426569941656px"/><path d="M337.9,173.11s9.95,11.53,10.25,18.69-1.89,11.43-1.89,11.43-5.81,2.63-6.08-3.93-3.18-19.58-7.41-21.79,8.05-5.71,8.05-5.71" style="fill:#c7ae72;stroke:#231f20;stroke-miterlimit:10;stroke-width:3.56426569941656px"/><ellipse cx="334.77" cy="175.03" rx="8.28" ry="8.95" transform="translate(-6.96 14.02) rotate(-2.37)" style="fill:#c7ae72;stroke:#231f20;stroke-miterlimit:10;stroke-width:3.56426569941656px"/><path d="M445,228.69c-.5.06-1,.14-1.5.16-1.2.05-1.81-.91-2.5-1.67a1.72,1.72,0,0,0-1.19-.63c-1.19-.11-2.39-.19-3.58-.34a18.33,18.33,0,0,1-9.67-4.63,15.24,15.24,0,0,1-3.31-3.76c-.39-.66-1-.37-1.5-.32a2.06,2.06,0,0,1-2.38-1.52c-.69-1.74-1.45-3.45-2.08-5.21a2.19,2.19,0,0,1,.64-2.64,2.58,2.58,0,0,0,1.23-2.73c-.23-2.62.74-5,1.83-7.25a1.4,1.4,0,0,0,0-1.4,2.88,2.88,0,0,1,.18-3.1,25.24,25.24,0,0,1,4.2-4.5,2.7,2.7,0,0,1,3-.7,3.52,3.52,0,0,0,2.85-.09,22.6,22.6,0,0,1,7.16-1c1.53.08,3,0,4.12-1.22a2.46,2.46,0,0,1,2.47-.48,16.16,16.16,0,0,1,4.93,2,1.8,1.8,0,0,1,.94,2.28,2.2,2.2,0,0,0,1.14,2.81,21.13,21.13,0,0,1,3.35,3.14,2.67,2.67,0,0,0,2,1.05c2.06,0,3.16,1.21,3.87,3a19.15,19.15,0,0,1,1.68,7.69,2,2,0,0,1-1.13,1.93,2.71,2.71,0,0,1-.88.39c-1.31.16-1.77,1.12-2.25,2.23a42.34,42.34,0,0,1-6.18,9.64,2.63,2.63,0,0,0-.87,2c.22,2-.81,3.1-2.54,3.64A24,24,0,0,1,445,228.69Z" style="fill:#231f20"/><path d="M437.58,225.22a11.8,11.8,0,0,1-2.58-.31.22.22,0,0,1,.13-.29.35.35,0,0,1,.32,0c-.06-.12-.19-.09-.29-.14a19.93,19.93,0,0,1-9.62-10.63,16.64,16.64,0,0,1-.85-3.48c0-.21-.12-.43.09-.59a1.12,1.12,0,0,1,.67,0,3.57,3.57,0,0,0,3-.67,3.47,3.47,0,0,0,.55-5.19,3.22,3.22,0,0,0-1.52-.69,8.9,8.9,0,0,1-1.57-.19c-.35-.31-.13-.62,0-.91a26.4,26.4,0,0,1,3.25-5.44,3.22,3.22,0,0,0,1-1.91.27.27,0,0,1,.29-.28,3.49,3.49,0,0,0,2.79,1.81c.17.11.46.15.45.39s-.3.33-.53.37a2.36,2.36,0,0,1-.62,0,5.55,5.55,0,0,1-.69-.1,2.38,2.38,0,0,0,.65.29c2.29.55,4.55.05,5.86-2.36a1.46,1.46,0,0,0,.2-.87,2.11,2.11,0,0,0-.37-1.93,2.55,2.55,0,0,0-1.94-.75c-.46-.06-1,.09-1.36-.27a3.26,3.26,0,0,1,2.25-1.25c.45.16.92.22,1.38.35,1.72.47,3.09,1.8,1.54,4a1.66,1.66,0,0,0-.23.35c.15-.05.21-.2.3-.31a2.29,2.29,0,0,0-1-3.92c-.45-.17-1,0-1.36-.51.08-.4.39-.5.71-.59a13.45,13.45,0,0,1,2.41-.61,5.27,5.27,0,0,0,3.37-1.65c.12-.13.25-.27.45-.24a3.59,3.59,0,0,1,1.72.44c.22.25.62.17.82.47s.36.39.14.54c-.42.29-.1.42.06.6s.25.27.15.48-.1.2.17.31a3.17,3.17,0,0,1,1.45.87c.34.43.07.51-.32.46-.19.09-.42-.28-.54,0s.19.34.34.44a30,30,0,0,1,6,5.21,3.27,3.27,0,0,0,2.4,1.51c.07,1.75,1.22,2.9,2.1,4.24a29.45,29.45,0,0,1,2.44,5.3,1,1,0,0,1,0,.63c-.47.7-1.24.73-1.94.86-.48.09-.33-.33-.33-.55,0-.43.14-1.14-.26-1.15s-.22.72-.26,1.1a14.22,14.22,0,0,1-2.27,5.78,42.64,42.64,0,0,1-5.55,7.67,1.87,1.87,0,0,0-.49,1.58c.25,2.39-.43,2.46-1.95,3.07a24,24,0,0,1-3.82,1.12,2.58,2.58,0,0,1-2.95-1.06,1.57,1.57,0,0,0-1.57-1.21A15.7,15.7,0,0,0,437.58,225.22Z" style="fill:#b0b0b1"/><path d="M461.64,208.16c-.64-1.51-1.3-3-1.92-4.54a10.35,10.35,0,0,0-1.84-2.7,3.34,3.34,0,0,1-.82-2.93,2.88,2.88,0,0,1,2.87,1.94,18.46,18.46,0,0,1,1.93,7.56A.82.82,0,0,1,461.64,208.16Z" style="fill:#d5d4d4"/><path d="M418.08,210.5a2.11,2.11,0,0,1,1.24-2.34c.47-.11.37.32.41.53a21.22,21.22,0,0,0,2,6l.24.49c.59,1.21.59,1.21.38,1.29a2,2,0,0,1-2.08-.72C419.48,213.95,418.73,212.09,418.08,210.5Z" style="fill:#757575"/><path d="M448.73,190.85c.32-.06.55-.17.21-.43a5.53,5.53,0,0,0-1.92-.89l-.32-.1a3,3,0,0,1,.27-.14c.15-.06.41,0,.43-.19s-.21-.26-.34-.37c-.48-.41-.49-.43,0-.64.3-.12.07-.2,0-.29-.19-.3-.52-.36-.8-.51,0,0,0-.06,0-.08a.29.29,0,0,1,.05-.07,7.44,7.44,0,0,1,3.22,1.56,3.6,3.6,0,0,1,0,2.36C449.24,191.37,449,190.91,448.73,190.85Z" style="fill:#d2d2d2"/><path d="M437.58,225.22c1.23-.48,3.68.09,4.21,1,.08.14.16.25,0,.39-.55-1.23-1.68-1.07-2.68-1.2C438.62,225.31,438.1,225.27,437.58,225.22Z" style="fill:#d8d8d7"/><path d="M435.36,224.72c.17,0,.44.18.48,0s-.26-.25-.41-.33a23.58,23.58,0,0,1-5.58-4.24,16.84,16.84,0,0,1-5-10.35.45.45,0,0,0-.15-.32,4,4,0,0,1-.93-4.41,4.36,4.36,0,0,1,2.08-2.19,27.53,27.53,0,0,1,1.67-3.47c.83-1.74,2.57-2.9,2.93-4.94.35-.11.43-.47.61-.73a4.39,4.39,0,0,1,1.38-1.48c.71-.61,1.72-.59,2.44-1.19a6.74,6.74,0,0,1,2.37-1.12.34.34,0,0,0,.5-.11c.07-.33.33-.38.59-.46,1.11-.31,2.23-.55,3.36-.77a4.32,4.32,0,0,0,2.93-2,2,2,0,0,0-2.14.68,3.75,3.75,0,0,1-2.85,1,20.91,20.91,0,0,0-10.47,1.74c-.22.1-.43.22-.51,0-.4-1.11-1.22-.76-1.81-.46a14.08,14.08,0,0,0-5.09,4.92,1.88,1.88,0,0,0-.13,1.68c.1.3.24.43.48.1.1-.13.15-.44.32-.36s.09.37,0,.57c-.36,1.14-.8,2.24-1.26,3.34a12.41,12.41,0,0,0-1.07,6.47c.12,1.4.71,4.47.76,4.61a25.21,25.21,0,0,0,4,7.51A19.15,19.15,0,0,0,435,224.91.3.3,0,0,1,435.36,224.72Z" style="fill:#8e8e8e"/><path d="M451.25,215.13a4.75,4.75,0,0,1-2,.91c-.84.27-1.17.06-1.44-.91a7.06,7.06,0,0,1,3.17-6.32,2.94,2.94,0,0,1,2.88-.29c.54,0,.7.42.74.87a3.44,3.44,0,0,1-.27,1.88,18.9,18.9,0,0,1-1.56,2.65A3.12,3.12,0,0,1,451.25,215.13Z" style="fill:#231f20"/><path d="M452.07,200.74a11.43,11.43,0,0,1-4.47-4.59c-.2-.42-.52-.88-.11-1.35s.91-.33,1.4-.2a7.58,7.58,0,0,1,4.76,4.39,1.37,1.37,0,0,1-.33,1.73A.79.79,0,0,1,452.07,200.74Z" style="fill:#231f20"/><path d="M430.46,194.49a5,5,0,0,1,1.74-2.31c.27.07.63-.16.8.25-.22.7-1,.92-1.28,1.57-.12.28-.52.54-.19.87s.6,0,.85-.19a6.28,6.28,0,0,1,3.81-1.17,7.32,7.32,0,0,1,.88.16c.27.06.55.12.7-.19a.8.8,0,0,0-.18-.93c-.2-.24-.64-.27-.6-.72.55-.7.94,0,1.38.19a1.89,1.89,0,0,1,.31,2,1.08,1.08,0,0,1-.51.91c-1.55,1-3.1,2.05-5.1,1.48a5.15,5.15,0,0,1-1.75-.58C430.84,195.54,430.4,195.18,430.46,194.49Z" style="fill:#4a4a4a"/><path d="M451.25,215.13a9.85,9.85,0,0,0,2.8-3.88,2.29,2.29,0,0,0-.23-2.74c.33-.23.2-.5.05-.76s-.2-.42,0-.62c.94,0,2,1.2,1.93,2.34a6.47,6.47,0,0,1-.36,1.67,10.43,10.43,0,0,1-1.66,2.85A3.05,3.05,0,0,1,451.25,215.13Z" style="fill:#d3d3d3"/><path d="M430.66,205.61a4,4,0,0,0-2.27-3.15c-.12-.05-.32,0-.29-.24,0,0,.21-.06.33-.09a1.67,1.67,0,0,1,1.62.54,5.41,5.41,0,0,1,1.44,5.56,3.74,3.74,0,0,1-2.63,2.23c-.15,0-.38.17-.48,0s.09-.35.23-.44a7.15,7.15,0,0,0,1.06-1.09A3.85,3.85,0,0,0,430.66,205.61Z" style="fill:#d5d5d5"/><path d="M435.4,216.88c.2-.79.76-.55,1.27-.46a3.41,3.41,0,0,1,3,2.88,2.52,2.52,0,0,1-2.44,2.49c-.2-.47-.57-.3-.9-.25a2.93,2.93,0,0,1-1.71,0,.12.12,0,0,1,0-.07l.16-.08c.49-.47,1.15-.34,1.73-.49A1.76,1.76,0,0,0,438,219.3c-.16-1-1-1.26-1.71-1.72C436,217.36,435.52,217.35,435.4,216.88Z" style="fill:#c8c8c8"/><path d="M423.65,204.92a2.85,2.85,0,0,1,2.21-2,6,6,0,0,1,1.67.09.85.85,0,0,1-.19.83,3.06,3.06,0,0,0-1.35,2.23,2.29,2.29,0,0,0,2.31,2.5c.42.11.5.34.27.71a3.45,3.45,0,0,1-3.16.67c-.1-.22-.28-.44,0-.68.91-.17.89-.16.35-.92a3.41,3.41,0,0,1-.24-4c.06-.11.25-.22.1-.36s-.22,0-.33.07a1.74,1.74,0,0,0-.76.73c-.18.25-.26.64-.68.62C423.59,205.28,423.59,205.11,423.65,204.92Z" style="fill:#494949"/><path d="M440.6,200.28a3.81,3.81,0,0,1,4.23.9,4.24,4.24,0,0,1,.22,4.47c-.73,1.24-1.65,2.13-3.19,2,0-.48.41-.43.68-.5a.72.72,0,0,0,.61-.64,7.06,7.06,0,0,1,.71-1.14,3.48,3.48,0,0,0,.56-1.51c.25-1.83-.58-2.75-2.63-2.92C441.33,200.86,440.76,201,440.6,200.28Z" style="fill:#231f20"/><path d="M435.4,216.88a8.39,8.39,0,0,1,2.65,1.75c.14.16.46.27.15.56-.22.09-.42.24-.67.07-.76-1-1.72-.62-2.65-.43a5.13,5.13,0,0,1-3.39-.74.94.94,0,0,0-.75-.2c-.27,0-.35-.17-.42-.37.08-.91.82-1,1.45-1.15a5.69,5.69,0,0,1,2.33.1,2.56,2.56,0,0,1,1.31.41Z" style="fill:#4a4a4a"/><path d="M446.24,219.66c.44.59.94,1.2.47,2A3,3,0,0,1,444,223a2.06,2.06,0,0,1-2.19-1.48,1.61,1.61,0,0,1,.6-2.09,3.45,3.45,0,0,1,3.22-.37A.74.74,0,0,1,446.24,219.66Z" style="fill:#231f20"/><path d="M433.08,196.45a7.7,7.7,0,0,0,4.81-1.55,2.48,2.48,0,0,0,.79-.84c.23,1.08-.63,1.65-1.14,2.28-1,1.28-3.87,1.77-5.38,1.1a2.93,2.93,0,0,1-.52-.36c-.09-.07-.22-.14-.13-.27s.16-.06.24-.05c.44,0,.88.08,1.32.08.12,0,.39.1.37-.19C433.43,196.6,433.16,196.61,433.08,196.45Z" style="fill:#d2d2d2"/><path d="M441.89,209c-2,.47-3.82-.94-4.37-3.46a3.64,3.64,0,0,1,0-2.51c.09-.18.07-.53.31-.48s.13.35.12.55a6.37,6.37,0,0,0,.45,3.22,3,3,0,0,0,2.41,1.92,4.91,4.91,0,0,0,3.33-.55,2.41,2.41,0,0,0,1.06-1.28c.07-.19.27-.42.46-.32s0,.31-.09.46C444.89,208.1,443.65,208.75,441.89,209Z" style="fill:#d6d6d6"/><path d="M442.2,191.77c-.08-1.55.67-2.19,2.36-2a4.37,4.37,0,0,1,2.2,1.06,2,2,0,0,1-.73,3.1,3.38,3.38,0,0,1-3.64-1.27A1.19,1.19,0,0,1,442.2,191.77Z" style="fill:#231f20"/><path d="M445.77,226.5l-2,.1c-.11,0-.27,0-.28-.17s.15-.15.25-.17a23.45,23.45,0,0,0,3.93-1.63,2.75,2.75,0,0,0,1.1-.9c.33-.42.75-.32,1.11,0s.19.63,0,1a2.4,2.4,0,0,1-1,.83A27.68,27.68,0,0,1,445.77,226.5Z" style="fill:#d2d3d2"/><path d="M437.66,219.26c.18,0,.33-.29.54-.07a2.17,2.17,0,0,1-2.47,2.15c-.32,0-.63.07-.95.07a8.46,8.46,0,0,1-3.7-1.66,2,2,0,0,1-.74-2.24l.35.31a5.55,5.55,0,0,0,4.47,2.63A2.78,2.78,0,0,0,437.66,219.26Z" style="fill:#231f20"/><path d="M433,209.59h-.09l-.13-.08a2.5,2.5,0,0,1,3-.49,2.91,2.91,0,0,1,1.38,3.27,1.77,1.77,0,0,1-1.81,1.43c.05-.73.87-1.18.68-2a6.59,6.59,0,0,0-.19-1,1.45,1.45,0,0,0-1.53-1.09C433.81,209.65,433.37,209.87,433,209.59Z" style="fill:#cfcfce"/><path d="M447.78,215.12c.32.58.71,1,1.44.91l.69.73a3.16,3.16,0,0,1-1.16.31,2.49,2.49,0,0,1-2.26-1.53,3.18,3.18,0,0,1,.34-3c.07-.12.16-.32.33-.26s.1.31.06.46a3.74,3.74,0,0,0,0,2C447.28,215.07,447.34,215.42,447.78,215.12Z" style="fill:#d2d2d2"/><path d="M452.07,200.74a2.18,2.18,0,0,0,1.24,0,.61.61,0,0,0,.71-.12c.16-.13.11-.56.41-.42.13.06.11.43.16.66a1,1,0,0,1-.39,1.35c-.54.28-1.15.56-1.73,0s-1.61-.58-2.23-1.25c-.31-.33-.67-.61-1-.91-.1-.09-.28-.21-.14-.36s.27,0,.39.09c.53.33,1.06.68,1.6,1C451.41,200.93,451.75,201.07,452.07,200.74Z" style="fill:#d3d2d2"/><path d="M436.31,205a5.26,5.26,0,0,1,2-5.05c.14-.11.34-.46.57-.15s0,.38-.19.54a5.42,5.42,0,0,0-1.15,6.35c.06.13.1.38,0,.42s-.34,0-.44-.18A3.84,3.84,0,0,1,436.31,205Z" style="fill:#6a6b6b"/><path d="M427.23,203.63l.29-.64a2.94,2.94,0,0,1,2.55,3.57c-.13,1.12-.37,2.2-1.53,2.7,0-.27.07-.52-.29-.57-.16-.36.1-.58.29-.79a2.84,2.84,0,0,0,.62-1.87,1.83,1.83,0,0,0-1.32-2A1.71,1.71,0,0,1,427.23,203.63Z" style="fill:#2a2a2a"/><path d="M442.2,191.77a3.11,3.11,0,0,0,3.31,2,1.94,1.94,0,0,0,1.25-3s.12-.1.13-.09c.88.81.69,3.07-.37,3.39-1.87.56-2.59.77-4-.64A1.26,1.26,0,0,1,442.2,191.77Z" style="fill:#d4d5d5"/><path d="M436.2,211.83a2.35,2.35,0,0,1-.93,1.87c-.79.47-1.61.89-2.46.18a2.59,2.59,0,0,1-.92-2.85.69.69,0,0,1,.38.34,4.42,4.42,0,0,1,.27.87,1.83,1.83,0,0,0,.71,1c.26.17.58.32.81.1s-.31-.25-.47-.41a1.5,1.5,0,0,1-.51-.83c0-.38-.2-.82.19-1.14.33.08.33.39.41.64a1.16,1.16,0,0,0,1.14,1c.61,0,.49-.64.59-1.05a1.09,1.09,0,0,1,.12-.34C436.12,211,436,211.62,436.2,211.83Z" style="fill:#454545"/><path d="M446.24,219.66c-1.68-1.17-3.74-.7-4.37,1-.12.33,0,.58,0,.86l0,.18c-.25-.42-.84-.66-.63-1.31a3.26,3.26,0,0,1,4.94-1.47C446.43,219.14,446.65,219.34,446.24,219.66Z" style="fill:#d8d8d7"/><path d="M447.06,202.2a6.93,6.93,0,0,1-.49,3.82c-.12.27-.36.65-.59.55s0-.48.09-.71a7.54,7.54,0,0,0,.26-4.12,1.4,1.4,0,0,0-.62-1c-.19-.11-.33-.33-.15-.54s.39-.07.56.06A2.4,2.4,0,0,1,447.06,202.2Z" style="fill:#757575"/><path d="M437.26,190l.5-.11a3.42,3.42,0,0,1,2.62.93,2.45,2.45,0,0,1,.16,3.17c-.32.39-.63,1.24-1.1,1s.37-.77.6-1.17c1.06-1.78.1-2.84-1.68-3.4C438,190.25,437.5,190.49,437.26,190Z" style="fill:#676767"/><path d="M436.2,211.83c-.26-.17-.26-.58-.61-.65a.45.45,0,0,1-.21-.16c-.87-1.16-1.17-1.17-2,0-.27.35.12.79-.11,1.14a.9.9,0,0,1-.46-.62c-.2-.56-.19-.57-.61-.13-.18-.05-.2-.22-.26-.36a1.85,1.85,0,0,1,1.06-1.44l.68-.18a1.84,1.84,0,0,1,2.46,1.71A4.63,4.63,0,0,0,436.2,211.83Z" style="fill:#231f20"/><path d="M438.37,192c-.45-.09-.87-.57-1.36-.14-.35.25-.75.15-1.13.18-1-.09-1.91.41-2.89.36l-.79-.25a6.27,6.27,0,0,1,2.7-1.08,8.47,8.47,0,0,1,2.59.24A1.45,1.45,0,0,1,438.37,192Z" style="fill:#231f20"/><path d="M455.47,211.15c-.27-.15-.11-.3,0-.5a2.64,2.64,0,0,0-1.52-3.52c-.06-.2-.23-.42-.07-.6s.33,0,.48.08A2.82,2.82,0,0,1,455.47,211.15Z" style="fill:#616261"/><path d="M425.31,209.39c0,.19.28.33.09.55l-.53-.12a3.78,3.78,0,0,1-1.22-4.9c0,.17.09.33.27.4a.49.49,0,0,1,.12.34A4.69,4.69,0,0,0,425.31,209.39Z" style="fill:#231f20"/><path d="M440.6,200.28a2.09,2.09,0,0,0,1.17.5.57.57,0,0,1-.49.33,2.2,2.2,0,0,0-1.92,1.94.81.81,0,0,1-.24.48c-.41.13-.54-.22-.74-.46A2.94,2.94,0,0,1,440.6,200.28Z" style="fill:#4a4a4a"/><path d="M438.37,203.07a1.21,1.21,0,0,1,.62.47c.56.88.51,2,1,2.88a.8.8,0,0,1-.23.72C438.35,206.11,438.34,204.6,438.37,203.07Z" style="fill:#231f20"/><path d="M437.21,221.79a3.4,3.4,0,0,0,2.44-2.49c.64.07.47.54.36.88a2.85,2.85,0,0,1-1.85,1.78c-.25.1-.5.17-.75.24s-.61.28-.71,0S437.14,222.07,437.21,221.79Z" style="fill:#616262"/><path d="M439.76,207.13l.09-.6a12.39,12.39,0,0,0,3.43,0c.13.55-.12.78-.62.85-.28,0-.6,0-.8.28A2.73,2.73,0,0,1,439.76,207.13Z" style="fill:#4a4a4a"/><path d="M452.48,202.18c1.45.25,1.82,0,2.11-1.34.75.06.47.65.4,1-.22,1-2.32,1.46-3,.73a.76.76,0,0,1-.1-.22Z" style="fill:#626262"/><path d="M435.43,216.86a5.34,5.34,0,0,1-1.31-.41A1.09,1.09,0,0,1,435.43,216.86Z" style="fill:#c8c8c8"/><path d="M424.12,202.12c.2,0,.43-.16.52,0s-.14.29-.28.38a5.14,5.14,0,0,0-2.09,6c.07.22.47.49.12.65s-.51-.25-.63-.54a5.74,5.74,0,0,1-.12-3.65,3.37,3.37,0,0,1,2-2.69C423.81,202.19,424,202.16,424.12,202.12Z" style="fill:#525252"/><path d="M424.69,198.28c-.89,0-1-.68-.84-1.35A4.13,4.13,0,0,1,426,194.2a1.19,1.19,0,0,1,1.74.55.39.39,0,0,1-.35.33,2,2,0,0,0-1.87,1.62c-.09.32,0,.68-.25,1-.62,0-.53-.47-.51-.87a3.3,3.3,0,0,1,.93-1.73c.06-.06.15-.09.2-.16a.61.61,0,0,0-.22.15,5.84,5.84,0,0,0-1.12,1.52,1,1,0,0,0,.33,1.18C425.23,198,425.19,198.09,424.69,198.28Z" style="fill:#231f20"/><path d="M427.9,194.75c.24-.21-.18-.73.19-.73s.39.46.41.84c.11,1.82-.95,2.85-2.29,3.67a1.77,1.77,0,0,1-1.46.05s0-.05,0-.08a.27.27,0,0,1,0-.08,11.39,11.39,0,0,0,1.94-1.2A5.58,5.58,0,0,0,427.9,194.75Z" style="fill:#aeaeaf"/><path d="M427.9,194.75a3.54,3.54,0,0,1-3.14,3.67.79.79,0,0,0-.07-.13c.15-.1.5-.21.1-.39-.76-.34-.69-.85-.4-1.45a.53.53,0,0,1,.58.26c.08.31-.23.8.36.89a3.86,3.86,0,0,0,2.09-2.62l.33-.23Z" style="fill:#414242"/><path d="M448.85,213.86c-.32.14-.46.06-.35-.31a7.38,7.38,0,0,1,2.18-3.66c.18-.16.4-.36.52,0A3.7,3.7,0,0,1,448.85,213.86Z" style="fill:#737373"/><path d="M453.36,210.62a6.64,6.64,0,0,1-3.24,4.27c-.22-.16-.46-.3-.45-.62a5.07,5.07,0,0,0,2.15-3A3.61,3.61,0,0,1,453.36,210.62Z" style="fill:#929292"/><path d="M453.36,210.62c-.37.58-1,.56-1.54.6,0-.33,0-.66,0-1s-.34-1,.35-1.21a1.33,1.33,0,0,1,1.34.22C453.86,209.66,453.64,210.19,453.36,210.62Z" style="fill:#6d6d6d"/><path d="M449.67,214.27c.2.17.46.3.45.62-.53.3-1,.94-1.65.1-.15-.21-.36-.47.19-.45A3.31,3.31,0,0,0,449.67,214.27Z" style="fill:#717171"/><path d="M451.79,199.11a5.25,5.25,0,0,0-3.25-2.88,1,1,0,0,1-.61-.92c-.07-.48.36-.23.56-.18a6.43,6.43,0,0,1,4.34,3.6C452.77,199.33,452.66,199.38,451.79,199.11Z" style="fill:#919292"/><path d="M451.79,199.11c.31-.24.86.24,1-.38.07.13.22.27.21.39,0,.35.54.81,0,1a.84.84,0,0,1-1.15-.68C451.83,199.35,451.81,199.23,451.79,199.11Z" style="fill:#6c6d6d"/><path d="M451,199.06a2.76,2.76,0,0,1-.3-.2,9.16,9.16,0,0,1-.71-.69c-.28-.32-.74-.5-.79-1a2.86,2.86,0,0,1,1.08.76,5.58,5.58,0,0,1,.7.82C451,198.81,451,198.93,451,199.06Z" style="fill:#878787"/><path d="M433,192.43a5.15,5.15,0,0,1,3-.6,1.31,1.31,0,0,1,.28,1.87c-1.49.16-3,.31-4.1,1.52-.3.32-.52.08-.76-.09a.49.49,0,0,1-.18-.76A6.54,6.54,0,0,1,433,192.43Z" style="fill:#959595"/><path d="M436.22,193.69a3.06,3.06,0,0,0-.28-1.87l1.06.06c.35.27.84.35,1,.82a1.17,1.17,0,0,1-.16,1.12c-.23.35-.53.14-.8.08Z" style="fill:#7c7c7c"/><path d="M434.41,195.56c-.47,0-.93.09-1.4.11-.1,0-.21-.08-.32-.12a1.18,1.18,0,0,1,.21-.27,5.26,5.26,0,0,1,3.59-.9c.13,0,.32-.05.36.16s-.15.25-.26.32A6.27,6.27,0,0,1,434.41,195.56Z" style="fill:#838383"/><path d="M427.23,203.63a2,2,0,0,1,2,1.25,3.2,3.2,0,0,1-.39,3c-.19.27-.47.46-.57.79a.89.89,0,0,1-1,0A2.88,2.88,0,0,1,427.23,203.63Z" style="fill:#737474"/><path d="M425.31,209.39c-1.28-.78-1.72-2.07-1.39-4.07.43-.69.69-1.57,1.69-1.64.16,0,.32-.25.47-.06s-.09.32-.18.45a3.33,3.33,0,0,0-.29,3.75,6.7,6.7,0,0,0,.77,1c.13.16.45.22.36.45s-.36.14-.56.16S425.6,209.4,425.31,209.39Z" style="fill:gray"/><path d="M443.28,206.54a3.54,3.54,0,0,1-3.43,0,6.77,6.77,0,0,1-.86-3,2.73,2.73,0,0,1,2.78-2.76c3.06-.19,3.41,2.49,2.51,4.39A5,5,0,0,1,443.28,206.54Z" style="fill:#7e7e7e"/><path d="M435.17,220.62a4.65,4.65,0,0,1-4.48-2.8c.12-.46.34-.36.63-.14a4.86,4.86,0,0,0,3.5.94A1.86,1.86,0,0,1,435.17,220.62Z" style="fill:#909090"/><path d="M435.17,220.62l-.35-2a4.44,4.44,0,0,0,.94-.19c.92-.41,1.46.07,1.9.83A2,2,0,0,1,435.17,220.62Z" style="fill:#727171"/><path d="M432,217a6.86,6.86,0,0,1,3.32.69,1.6,1.6,0,0,1,.21.15c-.09.07-.17.2-.27.21a4.51,4.51,0,0,1-3.39-.62,1.06,1.06,0,0,1-.2-.28Z" style="fill:#828283"/><path d="M443.95,221.56a1.87,1.87,0,0,1-.79,0c-.32-.09-.64-.14-.72-.55a.93.93,0,0,1,.32-.89,2.8,2.8,0,0,1,2.52-.36c.35.16.34.38.23.66A1.72,1.72,0,0,1,443.95,221.56Z" style="fill:#737373"/><path d="M445.68,222a2.65,2.65,0,0,1-2.42.46c-.21-.06-.45-.23-.41-.42s.32-.08.5-.07a3.15,3.15,0,0,0,2.06-.66A.6.6,0,0,1,445.68,222Z" style="fill:#9b9a9a"/><path d="M445.68,222a1,1,0,0,1-.28-.68c.05-.1.08-.26.17-.3.25-.12.1-.85.56-.51a.78.78,0,0,1,0,1.13A2.42,2.42,0,0,1,445.68,222Z" style="fill:#6f6f6f"/><path d="M445.37,193.28a2.6,2.6,0,0,1-1.44-.31c-.37-.2-.87-.45-.83-.84s.57-.73,1-.85a2.17,2.17,0,0,1,1.54.25c.36.19.81.45.73.92A1,1,0,0,1,445.37,193.28Z" style="fill:#727272"/><path d="M444.52,190.22a2,2,0,0,1,1.9,1.1c0,.08.09.2.06.25s-.2,0-.28-.06a2.6,2.6,0,0,0-1.57-.57l-.09,0c-.28-.14-.79.39-.86-.21S444.13,190.2,444.52,190.22Z" style="fill:#9a9a9a"/><path d="M444.52,190.22c-.26.11-.75,0-.67.48s.57,0,.78.25c-.5.14-1.06.09-1.48.5-.09.09-.23.26-.36.09a.64.64,0,0,1-.08-.42C442.78,190.4,443.46,190.07,444.52,190.22Z" style="fill:#707070"/><path d="M433.33,211c.05-.64.28-1.12,1-1.11s1.07.62,1.25,1.29c0,.06,0,.12,0,.18,0,.6.09,1.3-.57,1.54s-1.47-.6-1.61-1.36C433.39,211.36,433.36,211.18,433.33,211Z" style="fill:#7a7a7a"/><path d="M432.15,211.4a3.39,3.39,0,0,1,.36-.79c.13-.16.32-.47.53-.34s0,.38-.11.54c-.25.54.21.89.29,1.34a2,2,0,0,0,1.07,1,2.73,2.73,0,0,1,.27.19,1.55,1.55,0,0,1-.28.22c-.75.35-1.23-.09-1.66-.64A3.25,3.25,0,0,1,432.15,211.4Z" style="fill:#929292"/><path d="M427.43,195c.08,1.33-1,2.67-2.09,2.62a2.56,2.56,0,0,1,1.32-2.68C427,194.75,427.19,194.7,427.43,195Z" style="fill:#696969"/><path d="M425,196.71c-.22,0-.45,0-.58-.26a3.73,3.73,0,0,1,1.54-1.79c.12-.06.28-.11.39,0s-.12.17-.2.24A3.65,3.65,0,0,0,425,196.71Z" style="fill:#838383"/><path d="M85.68,144.23c-.65.07-1.31.18-2,.21-1.57.07-2.37-1.19-3.27-2.19a2.26,2.26,0,0,0-1.55-.82c-1.56-.14-3.13-.24-4.69-.44a24,24,0,0,1-12.66-6.07A20,20,0,0,1,57.22,130c-.51-.86-1.37-.49-2-.42a2.69,2.69,0,0,1-3.12-2c-.9-2.28-1.9-4.52-2.72-6.82a2.86,2.86,0,0,1,.84-3.46,3.38,3.38,0,0,0,1.61-3.58c-.31-3.43,1-6.51,2.39-9.49a1.84,1.84,0,0,0-.06-1.83,3.78,3.78,0,0,1,.24-4.06,33.05,33.05,0,0,1,5.49-5.9c1.12-1,2.56-1.63,4-.91s2.5.22,3.73-.12A29.59,29.59,0,0,1,77,90.06c2,.1,3.88,0,5.4-1.6.88-.95,2.05-.86,3.24-.63a21.16,21.16,0,0,1,6.46,2.58,2.35,2.35,0,0,1,1.23,3c-.53,1.72.05,2.74,1.49,3.68a27.66,27.66,0,0,1,4.38,4.11,3.5,3.5,0,0,0,2.58,1.38c2.7-.05,4.14,1.59,5.07,4,1.25,3.24,2.34,6.49,2.2,10.07a2.68,2.68,0,0,1-1.49,2.53,3.55,3.55,0,0,1-1.15.51c-1.72.22-2.32,1.46-2.95,2.92a55.44,55.44,0,0,1-8.09,12.62,3.45,3.45,0,0,0-1.14,2.68c.29,2.6-1.06,4.06-3.33,4.77A31.46,31.46,0,0,1,85.68,144.23Z" style="fill:#231f20"/><path d="M76,139.68a15.45,15.45,0,0,1-3.38-.4.29.29,0,0,1,.17-.38.46.46,0,0,1,.42,0c-.08-.16-.26-.11-.38-.18-5.74-3.16-10.22-7.54-12.6-13.92a21.79,21.79,0,0,1-1.12-4.56c0-.27-.16-.56.12-.78a1.47,1.47,0,0,1,.88,0,4.68,4.68,0,0,0,3.91-.88c2.24-1.59,2.6-5.06.72-6.79a4.21,4.21,0,0,0-2-.91,11.66,11.66,0,0,1-2.05-.25c-.46-.41-.17-.81,0-1.19a34.57,34.57,0,0,1,4.25-7.12,4.22,4.22,0,0,0,1.26-2.51.35.35,0,0,1,.37-.37c.75,1.57,2.14,2.06,3.65,2.37.22.15.6.2.58.52s-.4.43-.7.49a3.1,3.1,0,0,1-.81,0,7.26,7.26,0,0,1-.91-.13,3.12,3.12,0,0,0,.85.38c3,.72,6,.07,7.67-3.08a1.91,1.91,0,0,0,.26-1.14,2.76,2.76,0,0,0-.48-2.53,3.34,3.34,0,0,0-2.54-1c-.6-.07-1.25.11-1.78-.35a4.27,4.27,0,0,1,2.94-1.63c.59.22,1.21.29,1.8.46,2.26.62,4,2.35,2,5.18a2.17,2.17,0,0,0-.3.46c.19-.07.28-.26.4-.4,1.7-2,1.09-4.21-1.34-5.14-.59-.23-1.35,0-1.78-.67.1-.52.51-.66.93-.78a17.61,17.61,0,0,1,3.15-.8,6.89,6.89,0,0,0,4.42-2.16c.16-.17.32-.35.59-.32a4.7,4.7,0,0,1,2.26.58c.29.33.81.22,1.07.62.15.22.47.51.18.71-.55.38-.13.54.08.79s.33.36.2.63-.13.27.23.41a4.15,4.15,0,0,1,1.9,1.13c.44.57.09.67-.42.6-.25.11-.55-.37-.71,0s.25.44.45.58A39.24,39.24,0,0,1,98.35,102c.88,1,1.73,1.94,3.14,2,.09,2.29,1.59,3.8,2.75,5.55a38.57,38.57,0,0,1,3.2,6.94,1.24,1.24,0,0,1,0,.82c-.61.92-1.62,1-2.54,1.13-.62.12-.43-.43-.43-.72,0-.57.18-1.5-.34-1.51s-.29.94-.34,1.44a18.62,18.62,0,0,1-3,7.56,55.83,55.83,0,0,1-7.27,10,2.45,2.45,0,0,0-.64,2.07c.33,3.13-.57,3.23-2.55,4a31.38,31.38,0,0,1-5,1.46,3.37,3.37,0,0,1-3.86-1.39,2.06,2.06,0,0,0-2.05-1.58A20.56,20.56,0,0,0,76,139.68Z" style="fill:#b0b0b1"/><path d="M107.48,117.34c-.84-2-1.71-3.95-2.52-5.94a13.55,13.55,0,0,0-2.4-3.54,4.38,4.38,0,0,1-1.07-3.84c1.85-.1,2.92.88,3.76,2.54a24.18,24.18,0,0,1,2.52,9.91A1.07,1.07,0,0,1,107.48,117.34Z" style="fill:#d5d4d4"/><path d="M50.45,120.41a2.76,2.76,0,0,1,1.63-3.06c.61-.14.49.42.53.69a27.78,27.78,0,0,0,2.6,7.91l.31.64c.77,1.58.77,1.58.49,1.69a2.62,2.62,0,0,1-2.72-.95C52.28,124.92,51.3,122.49,50.45,120.41Z" style="fill:#757575"/><path d="M90.57,94.67c.42-.07.72-.22.28-.56a7.25,7.25,0,0,0-2.51-1.17l-.42-.14a3.93,3.93,0,0,1,.35-.19c.2-.08.54,0,.56-.25s-.27-.34-.44-.49c-.63-.54-.64-.56,0-.84.39-.16.1-.26,0-.39-.25-.39-.69-.47-1.05-.67,0,0,0-.08,0-.11a.38.38,0,0,1,.07-.09,9.74,9.74,0,0,1,4.21,2c.36.27.3,2.73,0,3.09S90.89,94.75,90.57,94.67Z" style="fill:#d2d2d2"/><path d="M76,139.68c1.61-.62,4.82.11,5.51,1.26.11.18.21.33,0,.51-.72-1.61-2.2-1.4-3.51-1.57C77.33,139.8,76.66,139.75,76,139.68Z" style="fill:#d8d8d7"/><path d="M73.07,139c.22,0,.58.23.63,0s-.34-.33-.54-.44a30.88,30.88,0,0,1-7.3-5.55,22,22,0,0,1-6.54-13.55.59.59,0,0,0-.2-.41,5.18,5.18,0,0,1-1.21-5.78,5.71,5.71,0,0,1,2.72-2.87,36,36,0,0,1,2.18-4.55c1.09-2.28,3.37-3.8,3.84-6.46.46-.14.56-.61.8-.95a5.75,5.75,0,0,1,1.81-1.93c.93-.8,2.25-.77,3.19-1.56,1-.52,1.9-1.35,3.1-1.46a.44.44,0,0,0,.66-.14c.09-.44.43-.5.77-.6,1.45-.4,2.92-.72,4.39-1a5.65,5.65,0,0,0,3.83-2.6c-1.16-.44-2,.2-2.8.9a4.91,4.91,0,0,1-3.73,1.31A27.38,27.38,0,0,0,65,93.68c-.29.13-.56.28-.67,0-.52-1.46-1.6-1-2.37-.6a18.43,18.43,0,0,0-6.66,6.44,2.47,2.47,0,0,0-.17,2.2c.13.39.32.57.63.13.13-.18.2-.57.41-.47s.12.48,0,.75c-.47,1.49-1,2.93-1.66,4.37a16.25,16.25,0,0,0-1.4,8.47c.16,1.84.92,5.85,1,6a33,33,0,0,0,5.21,9.83,25.07,25.07,0,0,0,13.29,8.45A.4.4,0,0,1,73.07,139Z" style="fill:#8e8e8e"/><path d="M93.87,126.46a6.21,6.21,0,0,1-2.66,1.19c-1.09.35-1.53.08-1.88-1.2a9.24,9.24,0,0,1,4.15-8.28,3.84,3.84,0,0,1,3.77-.38c.7,0,.92.55,1,1.14a4.5,4.5,0,0,1-.35,2.46,24.75,24.75,0,0,1-2,3.47A4.09,4.09,0,0,1,93.87,126.46Z" style="fill:#231f20"/><path d="M94.95,107.62c-2.37-1.57-4.6-3.3-5.86-6-.26-.55-.68-1.16-.15-1.77s1.19-.44,1.83-.26c3,.85,4.91,3,6.24,5.75a1.8,1.8,0,0,1-.44,2.27A1,1,0,0,1,94.95,107.62Z" style="fill:#231f20"/><path d="M66.65,99.44a6.52,6.52,0,0,1,2.27-3c.35.09.82-.21,1,.33-.29.92-1.3,1.2-1.68,2.05-.16.37-.68.71-.24,1.14s.79,0,1.12-.24a8.22,8.22,0,0,1,5-1.54,9.58,9.58,0,0,1,1.15.2c.35.08.73.16.92-.25A1.05,1.05,0,0,0,76,96.9c-.27-.31-.84-.35-.78-.94.72-.91,1.23,0,1.8.25a2.47,2.47,0,0,1,.41,2.66,1.42,1.42,0,0,1-.66,1.2c-2,1.34-4.05,2.69-6.67,1.94a6.74,6.74,0,0,1-2.29-.76C67.15,100.82,66.57,100.34,66.65,99.44Z" style="fill:#4a4a4a"/><path d="M93.87,126.46a12.9,12.9,0,0,0,3.67-5.09,3,3,0,0,0-.3-3.58c.43-.3.26-.65.07-1s-.27-.55,0-.81c1.23-.05,2.56,1.57,2.52,3.07a8.48,8.48,0,0,1-.47,2.19A13.65,13.65,0,0,1,97.23,125,4,4,0,0,1,93.87,126.46Z" style="fill:#d3d3d3"/><path d="M66.92,114a5.17,5.17,0,0,0-3-4.13c-.15-.07-.42,0-.38-.31,0-.06.28-.07.43-.12a2.19,2.19,0,0,1,2.12.71A7.08,7.08,0,0,1,68,117.42a4.9,4.9,0,0,1-3.45,2.92c-.2.06-.5.22-.63,0s.11-.46.3-.57a9.37,9.37,0,0,0,1.38-1.43A5,5,0,0,0,66.92,114Z" style="fill:#d5d5d5"/><path d="M73.12,128.76c.26-1,1-.72,1.66-.6a4.47,4.47,0,0,1,3.91,3.78,3.3,3.3,0,0,1-3.19,3.26c-.27-.62-.74-.39-1.18-.32a3.84,3.84,0,0,1-2.24,0,.15.15,0,0,1,0-.09l.2-.11c.64-.61,1.51-.44,2.27-.64a2.31,2.31,0,0,0,2-2.14c-.21-1.32-1.36-1.65-2.24-2.25C73.88,129.39,73.28,129.37,73.12,128.76Z" style="fill:#c8c8c8"/><path d="M57.73,113.09a3.73,3.73,0,0,1,2.9-2.64,7.89,7.89,0,0,1,2.19.12,1.11,1.11,0,0,1-.25,1.08,4,4,0,0,0-1.77,2.93,3,3,0,0,0,3,3.28c.55.14.66.45.35.92a4.52,4.52,0,0,1-4.14.88c-.13-.29-.37-.58,0-.89,1.19-.22,1.17-.2.45-1.21a4.46,4.46,0,0,1-.31-5.25c.08-.14.33-.29.13-.47s-.29,0-.43.1a2.28,2.28,0,0,0-1,1c-.24.33-.34.84-.9.81C57.65,113.57,57.66,113.35,57.73,113.09Z" style="fill:#494949"/><path d="M79.93,107a5,5,0,0,1,5.54,1.18,5.56,5.56,0,0,1,.28,5.86c-1,1.62-2.16,2.8-4.18,2.64,0-.63.54-.57.9-.66a.94.94,0,0,0,.8-.84,9.24,9.24,0,0,1,.94-1.5,4.56,4.56,0,0,0,.74-2c.32-2.4-.76-3.6-3.45-3.82C80.89,107.78,80.14,107.9,79.93,107Z" style="fill:#231f20"/><path d="M73.12,128.76a11,11,0,0,1,3.47,2.3c.19.21.6.36.19.73-.28.11-.56.31-.87.09-1-1.31-2.25-.81-3.46-.56a6.72,6.72,0,0,1-4.43-1,1.23,1.23,0,0,0-1-.26c-.35,0-.45-.22-.55-.49.11-1.19,1.08-1.3,1.89-1.51a7.45,7.45,0,0,1,3.06.13,3.35,3.35,0,0,1,1.72.53Z" style="fill:#4a4a4a"/><path d="M87.32,132.4c.58.77,1.23,1.58.61,2.59a3.93,3.93,0,0,1-3.49,1.74,2.69,2.69,0,0,1-2.87-1.94,2.1,2.1,0,0,1,.79-2.74,4.52,4.52,0,0,1,4.22-.48A1,1,0,0,1,87.32,132.4Z" style="fill:#231f20"/><path d="M70.08,102a10.08,10.08,0,0,0,6.3-2,3.25,3.25,0,0,0,1-1.1c.3,1.42-.82,2.16-1.5,3-1.37,1.68-5.07,2.32-7,1.44a3.83,3.83,0,0,1-.68-.47c-.12-.09-.29-.18-.17-.36s.21-.08.32-.07c.58,0,1.16.11,1.73.11.16,0,.51.13.48-.25C70.55,102.2,70.19,102.22,70.08,102Z" style="fill:#d2d2d2"/><path d="M81.62,118.48c-2.67.61-5-1.23-5.73-4.53a4.77,4.77,0,0,1,0-3.28c.11-.23.09-.69.41-.63s.17.45.15.72A8.35,8.35,0,0,0,77,115a3.88,3.88,0,0,0,3.16,2.52,6.42,6.42,0,0,0,4.36-.73,3.16,3.16,0,0,0,1.39-1.68c.09-.25.35-.55.6-.42s0,.41-.12.6C85.55,117.26,83.93,118.11,81.62,118.48Z" style="fill:#d6d6d6"/><path d="M82,95.88c-.11-2,.87-2.87,3.09-2.64A5.72,5.72,0,0,1,88,94.63a2.61,2.61,0,0,1-1,4.05A4.43,4.43,0,0,1,82.26,97,1.56,1.56,0,0,1,82,95.88Z" style="fill:#231f20"/><path d="M86.71,141.36l-2.56.13c-.15,0-.35,0-.36-.23s.19-.2.33-.23a30.7,30.7,0,0,0,5.14-2.13,3.61,3.61,0,0,0,1.44-1.18c.43-.55,1-.42,1.45-.05s.24.82,0,1.24A3.14,3.14,0,0,1,90.76,140,36.25,36.25,0,0,1,86.71,141.36Z" style="fill:#d2d3d2"/><path d="M76.08,131.88c.24,0,.43-.38.71-.09-.13,1.82-1.23,2.82-3.24,2.82-.42,0-.83.1-1.24.09a11.08,11.08,0,0,1-4.85-2.17,2.57,2.57,0,0,1-1-2.93L67,130a7.27,7.27,0,0,0,5.85,3.44A3.65,3.65,0,0,0,76.08,131.88Z" style="fill:#231f20"/><path d="M69.92,119.21a.34.34,0,0,1-.11,0l-.17-.11c1.33-1.1,2.82-1.35,3.89-.65a3.81,3.81,0,0,1,1.8,4.29A2.32,2.32,0,0,1,73,124.6c.07-1,1.14-1.54.89-2.62a8.62,8.62,0,0,0-.25-1.28,1.9,1.9,0,0,0-2-1.43C71,119.29,70.47,119.57,69.92,119.21Z" style="fill:#cfcfce"/><path d="M89.33,126.46c.42.76.94,1.34,1.88,1.2l.9,1a4.14,4.14,0,0,1-1.51.41,3.26,3.26,0,0,1-3-2,4.16,4.16,0,0,1,.45-3.89c.1-.16.21-.41.43-.34s.13.4.08.6a4.89,4.89,0,0,0,0,2.61C88.68,126.39,88.76,126.85,89.33,126.46Z" style="fill:#d2d2d2"/><path d="M94.95,107.62a2.85,2.85,0,0,0,1.63,0,.79.79,0,0,0,.93-.16c.21-.17.14-.74.53-.55.17.08.15.56.22.86a1.28,1.28,0,0,1-.51,1.77c-.71.37-1.51.73-2.26,0s-2.11-.75-2.92-1.64c-.4-.43-.88-.79-1.31-1.2-.13-.12-.37-.27-.18-.48s.35,0,.51.11c.7.44,1.39.89,2.09,1.31C94.09,107.87,94.53,108.06,94.95,107.62Z" style="fill:#d3d2d2"/><path d="M74.31,113.25a6.88,6.88,0,0,1,2.56-6.62c.19-.15.44-.61.75-.2s0,.5-.25.71a7.1,7.1,0,0,0-1.51,8.32c.07.17.13.5.06.55-.23.17-.45-.06-.58-.23A5,5,0,0,1,74.31,113.25Z" style="fill:#6a6b6b"/><path d="M62.43,111.41l.39-.84a3.85,3.85,0,0,1,3.34,4.68c-.17,1.47-.48,2.88-2,3.53.06-.35.1-.69-.38-.75-.21-.48.13-.76.37-1a3.72,3.72,0,0,0,.81-2.44,2.4,2.4,0,0,0-1.72-2.68A2.24,2.24,0,0,1,62.43,111.41Z" style="fill:#2a2a2a"/><path d="M82,95.88a4.07,4.07,0,0,0,4.34,2.67c1.73-.2,2.56-2.18,1.64-3.92.06,0,.16-.13.17-.11,1.16,1.06.9,4-.49,4.44-2.44.74-3.4,1-5.23-.83A1.66,1.66,0,0,1,82,95.88Z" style="fill:#d4d5d5"/><path d="M74.17,122.15A3.07,3.07,0,0,1,73,124.6c-1,.61-2.11,1.17-3.22.23a3.39,3.39,0,0,1-1.2-3.73.9.9,0,0,1,.5.45,5.78,5.78,0,0,1,.35,1.14,2.4,2.4,0,0,0,.93,1.34c.34.23.76.42,1.06.13.11-.11-.41-.33-.61-.54a2,2,0,0,1-.67-1.09c0-.5-.27-1.08.25-1.49.43.1.44.51.54.83a1.52,1.52,0,0,0,1.5,1.25c.79,0,.64-.84.77-1.38a1.43,1.43,0,0,1,.15-.44C74.06,121.06,73.88,121.87,74.17,122.15Z" style="fill:#454545"/><path d="M87.32,132.4c-2.2-1.54-4.9-.92-5.73,1.26-.16.43,0,.76,0,1.13l0,.24c-.33-.55-1.1-.86-.83-1.71a4.27,4.27,0,0,1,6.46-1.92C87.56,131.71,87.85,132,87.32,132.4Z" style="fill:#d8d8d7"/><path d="M88.4,109.54a9.07,9.07,0,0,1-.64,5c-.16.35-.47.85-.78.72s0-.62.12-.93a9.87,9.87,0,0,0,.34-5.4,1.84,1.84,0,0,0-.81-1.26c-.24-.14-.43-.43-.19-.7s.51-.09.73.08A3.14,3.14,0,0,1,88.4,109.54Z" style="fill:#757575"/><path d="M75.55,93.54l.66-.14a4.47,4.47,0,0,1,3.43,1.21,3.21,3.21,0,0,1,.21,4.15c-.41.51-.82,1.62-1.45,1.26-.44-.25.48-1,.79-1.53,1.39-2.33.13-3.72-2.2-4.45C76.51,93.89,75.87,94.21,75.55,93.54Z" style="fill:#676767"/><path d="M74.17,122.15c-.33-.22-.34-.76-.8-.85a.59.59,0,0,1-.27-.21c-1.14-1.52-1.54-1.53-2.68,0-.36.46.16,1-.15,1.5a1.18,1.18,0,0,1-.6-.81c-.26-.74-.25-.74-.8-.17-.23-.07-.26-.29-.34-.48a2.42,2.42,0,0,1,1.38-1.89l.89-.23c1.58-.39,3.24.45,3.22,2.24A6.06,6.06,0,0,0,74.17,122.15Z" style="fill:#231f20"/><path d="M77,96.21c-.59-.12-1.14-.74-1.78-.18-.46.32-1,.2-1.48.23-1.3-.12-2.5.54-3.79.48l-1-.33A8.22,8.22,0,0,1,72.45,95a11.09,11.09,0,0,1,3.39.32A1.89,1.89,0,0,1,77,96.21Z" style="fill:#231f20"/><path d="M99.4,121.25c-.35-.19-.14-.39-.06-.65.65-2.15-.1-3.85-2-4.61-.08-.26-.3-.55-.09-.78s.43,0,.63.1A3.69,3.69,0,0,1,99.4,121.25Z" style="fill:#616261"/><path d="M59.91,118.95c-.06.25.37.43.11.72l-.7-.15a5,5,0,0,1-1.59-6.41c.06.22.11.44.36.52a.65.65,0,0,1,.15.44A6.14,6.14,0,0,0,59.91,118.95Z" style="fill:#231f20"/><path d="M79.93,107a2.73,2.73,0,0,0,1.53.65.74.74,0,0,1-.64.43,2.88,2.88,0,0,0-2.52,2.55,1.07,1.07,0,0,1-.31.62c-.53.17-.71-.29-1-.6A3.86,3.86,0,0,1,79.93,107Z" style="fill:#4a4a4a"/><path d="M77,110.67a1.58,1.58,0,0,1,.81.61c.73,1.15.67,2.59,1.3,3.77a1.05,1.05,0,0,1-.3.94C77,114.66,77,112.68,77,110.67Z" style="fill:#231f20"/><path d="M75.5,135.19c1.51-.62,2.84-1.43,3.19-3.26.84.09.61.7.47,1.15a3.73,3.73,0,0,1-2.42,2.34c-.32.13-.66.22-1,.32s-.79.37-.93,0S75.4,135.56,75.5,135.19Z" style="fill:#616262"/><path d="M78.83,116l.12-.78a16.22,16.22,0,0,0,4.49,0c.17.72-.16,1-.82,1.11-.36.05-.79,0-1.05.36A3.58,3.58,0,0,1,78.83,116Z" style="fill:#4a4a4a"/><path d="M95.48,109.51c1.9.33,2.39,0,2.77-1.76,1,.08.62.85.52,1.3-.29,1.28-3,1.92-3.93,1a1,1,0,0,1-.13-.29Z" style="fill:#626262"/><path d="M73.16,128.74a7,7,0,0,1-1.72-.53A1.43,1.43,0,0,1,73.16,128.74Z" style="fill:#c8c8c8"/><path d="M58.35,109.43c.26,0,.56-.21.68,0s-.19.38-.37.5a6.72,6.72,0,0,0-2.73,7.82c.09.28.62.65.16.85s-.67-.33-.82-.71a7.51,7.51,0,0,1-.16-4.78,4.41,4.41,0,0,1,2.62-3.52C57.94,109.53,58.17,109.48,58.35,109.43Z" style="fill:#525252"/><path d="M59.09,104.41c-1.17-.06-1.33-.89-1.1-1.77a5.41,5.41,0,0,1,2.85-3.58,1.56,1.56,0,0,1,2.28.73.51.51,0,0,1-.45.43,2.59,2.59,0,0,0-2.44,2.12c-.12.41,0,.89-.33,1.25-.81,0-.7-.61-.67-1.14a4.32,4.32,0,0,1,1.21-2.27c.08-.08.19-.11.26-.21a.79.79,0,0,0-.29.19,7.65,7.65,0,0,0-1.47,2,1.24,1.24,0,0,0,.43,1.54C59.8,104.09,59.75,104.15,59.09,104.41Z" style="fill:#231f20"/><path d="M63.3,99.78c.31-.27-.24-1,.25-1s.51.6.54,1.1c.14,2.38-1.24,3.73-3,4.8a2.32,2.32,0,0,1-1.92.07s0-.07,0-.11a.36.36,0,0,1,0-.11A14.91,14.91,0,0,0,61.74,103,7.31,7.31,0,0,0,63.3,99.78Z" style="fill:#aeaeaf"/><path d="M63.3,99.78c.31,2.18-1.54,4.35-4.11,4.8a1,1,0,0,0-.1-.18c.19-.13.66-.27.14-.51-1-.44-.9-1.11-.52-1.9a.69.69,0,0,1,.76.34c.11.41-.3,1,.48,1.16a5.05,5.05,0,0,0,2.74-3.43l.43-.31Z" style="fill:#414242"/><path d="M90.73,124.8c-.42.19-.6.08-.46-.41a9.66,9.66,0,0,1,2.85-4.79c.23-.2.52-.47.69.05C94.35,121.44,92.55,124.44,90.73,124.8Z" style="fill:#737373"/><path d="M96.63,120.57a8.69,8.69,0,0,1-4.24,5.59c-.28-.21-.6-.39-.59-.82a6.63,6.63,0,0,0,2.81-4A4.73,4.73,0,0,1,96.63,120.57Z" style="fill:#929292"/><path d="M96.63,120.57c-.49.76-1.27.73-2,.79,0-.43,0-.87,0-1.3s-.44-1.34.45-1.58a1.75,1.75,0,0,1,1.75.29C97.29,119.3,97,120,96.63,120.57Z" style="fill:#6d6d6d"/><path d="M91.8,125.33c.27.22.6.39.59.82-.7.39-1.37,1.23-2.16.14-.19-.27-.48-.61.25-.58A4.34,4.34,0,0,0,91.8,125.33Z" style="fill:#717171"/><path d="M94.58,105.48a6.88,6.88,0,0,0-4.25-3.77,1.3,1.3,0,0,1-.8-1.2c-.1-.63.47-.3.73-.24A8.42,8.42,0,0,1,95.94,105C95.87,105.78,95.72,105.84,94.58,105.48Z" style="fill:#919292"/><path d="M94.58,105.48c.4-.31,1.13.32,1.36-.49.1.17.28.35.27.5,0,.46.7,1.06,0,1.35a1.1,1.1,0,0,1-1.5-.89C94.63,105.8,94.61,105.64,94.58,105.48Z" style="fill:#6c6d6d"/><path d="M93.52,105.42a3.61,3.61,0,0,1-.4-.26,12,12,0,0,1-.93-.9c-.36-.42-1-.65-1-1.32a3.75,3.75,0,0,1,1.41,1,7.31,7.31,0,0,1,.92,1.08C93.55,105.09,93.51,105.25,93.52,105.42Z" style="fill:#878787"/><path d="M70,96.74A6.75,6.75,0,0,1,73.83,96a1.72,1.72,0,0,1,.36,2.44c-1.95.21-3.91.41-5.36,2-.39.43-.68.1-1-.12a.64.64,0,0,1-.23-1A8.56,8.56,0,0,1,70,96.74Z" style="fill:#959595"/><path d="M74.19,98.4A4,4,0,0,0,73.83,96l1.39.08c.45.36,1.1.46,1.36,1.07a1.53,1.53,0,0,1-.21,1.47c-.3.46-.69.18-1,.1Z" style="fill:#7c7c7c"/><path d="M71.83,100.84c-.61.05-1.22.11-1.84.14-.14,0-.28-.1-.42-.16a1.55,1.55,0,0,1,.28-.36,6.89,6.89,0,0,1,4.7-1.18c.17,0,.42-.07.47.21s-.2.33-.34.41A8.21,8.21,0,0,1,71.83,100.84Z" style="fill:#838383"/><path d="M62.43,111.41A2.64,2.64,0,0,1,65,113a4.19,4.19,0,0,1-.51,4c-.24.35-.61.6-.75,1a1.17,1.17,0,0,1-1.36,0C60.06,116.64,59.58,113.34,62.43,111.41Z" style="fill:#737474"/><path d="M59.91,118.95c-1.67-1-2.25-2.72-1.82-5.33.57-.9.9-2.06,2.22-2.15.21,0,.42-.33.61-.08s-.11.42-.24.58a4.36,4.36,0,0,0-.38,4.91,8.77,8.77,0,0,0,1,1.3c.16.21.59.29.47.59-.06.15-.47.19-.73.2S60.29,119,59.91,118.95Z" style="fill:gray"/><path d="M83.44,115.22a4.63,4.63,0,0,1-4.49,0,8.87,8.87,0,0,1-1.13-3.93c.27-2.21,1.4-3.52,3.64-3.61,4-.25,4.47,3.27,3.29,5.75A6.59,6.59,0,0,1,83.44,115.22Z" style="fill:#7e7e7e"/><path d="M72.82,133.66c-2.26.28-5.26-1.59-5.87-3.66.16-.61.45-.47.82-.18A6.36,6.36,0,0,0,72.36,131,2.44,2.44,0,0,1,72.82,133.66Z" style="fill:#909090"/><path d="M72.82,133.66,72.36,131a5.81,5.81,0,0,0,1.23-.26c1.21-.53,1.91.1,2.49,1.08A2.63,2.63,0,0,1,72.82,133.66Z" style="fill:#727171"/><path d="M68.67,128.94a9,9,0,0,1,4.34.9,2.09,2.09,0,0,1,.28.19c-.12.1-.23.26-.36.28a5.91,5.91,0,0,1-4.43-.82,1.39,1.39,0,0,1-.26-.36Z" style="fill:#828283"/><path d="M84.31,134.89a2.44,2.44,0,0,1-1,0c-.42-.11-.84-.18-.95-.73a1.21,1.21,0,0,1,.41-1.17,3.66,3.66,0,0,1,3.29-.47c.46.21.45.49.31.86A2.25,2.25,0,0,1,84.31,134.89Z" style="fill:#737373"/><path d="M86.59,135.45a3.47,3.47,0,0,1-3.17.6c-.28-.08-.59-.3-.54-.54s.42-.11.65-.09a4.12,4.12,0,0,0,2.7-.86A.78.78,0,0,1,86.59,135.45Z" style="fill:#9b9a9a"/><path d="M86.59,135.45a1.36,1.36,0,0,1-.36-.89c.07-.14.11-.34.22-.39.33-.16.13-1.11.73-.67a1,1,0,0,1,0,1.48A3.16,3.16,0,0,1,86.59,135.45Z" style="fill:#6f6f6f"/><path d="M86.18,97.86a3.41,3.41,0,0,1-1.89-.4c-.48-.26-1.13-.58-1.09-1.1s.75-1,1.36-1.11a2.84,2.84,0,0,1,2,.33c.48.25,1.05.59,1,1.21A1.27,1.27,0,0,1,86.18,97.86Z" style="fill:#727272"/><path d="M85.06,93.85a2.64,2.64,0,0,1,2.49,1.44c0,.1.12.26.07.33s-.26,0-.36-.07a3.4,3.4,0,0,0-2.06-.74l-.11,0c-.37-.18-1,.5-1.12-.28S84.55,93.82,85.06,93.85Z" style="fill:#9a9a9a"/><path d="M85.06,93.85c-.34.15-1,0-.88.63s.74,0,1,.32c-.65.19-1.39.12-1.93.65-.12.12-.3.34-.47.12a.84.84,0,0,1-.11-.55C82.79,94.08,83.68,93.66,85.06,93.85Z" style="fill:#707070"/><path d="M70.42,121.06c.07-.84.37-1.47,1.31-1.46s1.4.81,1.64,1.69c0,.08,0,.16,0,.24,0,.79.11,1.7-.75,2s-1.92-.79-2.11-1.78C70.49,121.53,70.46,121.29,70.42,121.06Z" style="fill:#7a7a7a"/><path d="M68.87,121.58a4.44,4.44,0,0,1,.47-1c.17-.21.42-.61.69-.45s-.05.5-.15.71c-.33.71.28,1.17.38,1.76a2.64,2.64,0,0,0,1.4,1.35,3.57,3.57,0,0,1,.35.26,2,2,0,0,1-.36.28c-1,.45-1.62-.12-2.17-.84A4.26,4.26,0,0,1,68.87,121.58Z" style="fill:#929292"/><path d="M62.69,100.09c.1,1.75-1.3,3.49-2.74,3.43A3.35,3.35,0,0,1,61.68,100C62.07,99.78,62.38,99.72,62.69,100.09Z" style="fill:#696969"/><path d="M59.47,102.35c-.29,0-.59,0-.76-.34a4.88,4.88,0,0,1,2-2.35c.15-.08.37-.15.51,0,0,0-.16.22-.27.32A4.77,4.77,0,0,0,59.47,102.35Z" style="fill:#838383"/><path d="M326.13,339.44c-1.07.12-2.14.3-3.21.35-2.56.11-3.88-2-5.36-3.58a3.69,3.69,0,0,0-2.54-1.35c-2.55-.23-5.12-.4-7.66-.72-7.9-1-14.62-4.71-20.7-9.92a32.63,32.63,0,0,1-7.08-8.06c-.83-1.4-2.24-.8-3.21-.69-2.66.31-4.15-.84-5.1-3.25-1.47-3.73-3.11-7.39-4.45-11.16-.73-2.06-.48-4.42,1.37-5.65,2.22-1.49,2.88-3.16,2.64-5.85-.5-5.62,1.58-10.64,3.91-15.53a3,3,0,0,0-.1-3,6.17,6.17,0,0,1,.39-6.65,54.05,54.05,0,0,1,9-9.64c1.83-1.59,4.18-2.67,6.47-1.49s4.09.35,6.1-.2c5-1.38,10.09-2.47,15.34-2.2,3.27.17,6.35.06,8.83-2.61,1.44-1.55,3.36-1.41,5.3-1a34.6,34.6,0,0,1,10.56,4.22,3.85,3.85,0,0,1,2,4.88c-.86,2.8.08,4.48,2.44,6,2.73,1.78,4.87,4.37,7.17,6.72,1.18,1.21,2.4,2.29,4.22,2.26,4.41-.08,6.77,2.6,8.29,6.52,2,5.3,3.82,10.62,3.6,16.46a4.38,4.38,0,0,1-2.43,4.14,5.81,5.81,0,0,1-1.89.84c-2.81.35-3.8,2.39-4.82,4.78-3.26,7.65-8.13,14.24-13.23,20.64-1.05,1.32-2.09,2.45-1.87,4.39.48,4.26-1.73,6.63-5.45,7.8C331.83,337.78,329.11,339,326.13,339.44Z" style="fill:#231f20"/><path d="M310.26,332a25.26,25.26,0,0,1-5.52-.66.47.47,0,0,1,.28-.62.75.75,0,0,1,.68,0c-.14-.26-.42-.19-.62-.3-9.39-5.16-16.72-12.33-20.6-22.76a35.63,35.63,0,0,1-1.83-7.45c-.06-.44-.25-.91.19-1.27a2.4,2.4,0,0,1,1.44,0,7.66,7.66,0,0,0,6.39-1.44c3.66-2.6,4.26-8.28,1.18-11.11a6.89,6.89,0,0,0-3.27-1.48c-1.11-.22-2.27,0-3.36-.41-.75-.67-.27-1.33,0-1.95a56.53,56.53,0,0,1,7-11.64c1-1.18,2-2.39,2.07-4.1a.58.58,0,0,1,.61-.6c1.22,2.56,3.5,3.37,6,3.88.36.24,1,.33,1,.84s-.65.7-1.14.8a5.06,5.06,0,0,1-1.33,0,11.88,11.88,0,0,1-1.48-.21,5.1,5.1,0,0,0,1.4.62c4.91,1.17,9.75.11,12.54-5a3.12,3.12,0,0,0,.43-1.86c.16-1.46.41-2.94-.79-4.14-1.09-1.38-2.64-1.41-4.15-1.6-1-.12-2,.18-2.91-.57a7,7,0,0,1,4.81-2.67c1,.35,2,.48,2.95.75,3.69,1,6.62,3.85,3.29,8.48a3.55,3.55,0,0,0-.49.75c.32-.11.45-.42.65-.66,2.77-3.25,1.78-6.88-2.2-8.4-1-.37-2.21,0-2.91-1.1.17-.85.84-1.07,1.52-1.27a28.79,28.79,0,0,1,5.16-1.3,11.28,11.28,0,0,0,7.22-3.53c.26-.27.53-.57,1-.52a7.68,7.68,0,0,1,3.69.95c.47.55,1.33.36,1.75,1,.24.37.77.84.3,1.16-.9.62-.21.89.13,1.29s.54.58.32,1-.21.43.37.66a6.78,6.78,0,0,1,3.1,1.86c.72.92.15,1.1-.68,1-.4.19-.89-.6-1.16,0s.42.72.74.94a64.17,64.17,0,0,1,12.94,11.17c1.44,1.71,2.83,3.17,5.14,3.24.14,3.74,2.6,6.22,4.5,9.08,2.29,3.47,3.67,7.48,5.23,11.35a2,2,0,0,1,.07,1.35c-1,1.51-2.64,1.56-4.16,1.85-1,.19-.71-.7-.7-1.18,0-.93.29-2.45-.56-2.46-1,0-.47,1.54-.56,2.35-.5,4.62-2.57,8.57-4.85,12.37A91.31,91.31,0,0,1,339,324.82a4,4,0,0,0-1.05,3.39c.53,5.12-.93,5.27-4.17,6.57a51.32,51.32,0,0,1-8.19,2.39c-2.68.58-4.7,0-6.31-2.27a3.36,3.36,0,0,0-3.36-2.59C314.06,332.25,312.17,331.75,310.26,332Z" style="fill:#b0b0b1"/><path d="M361.78,295.48c-1.38-3.24-2.79-6.46-4.12-9.71a22.17,22.17,0,0,0-3.93-5.78A7.15,7.15,0,0,1,352,273.7c3-.17,4.78,1.44,6.15,4.15a39.54,39.54,0,0,1,4.13,16.2A1.75,1.75,0,0,1,361.78,295.48Z" style="fill:#d5d4d4"/><path d="M268.5,300.49c-.42-2.24,1.09-4.64,2.67-5,1-.23.8.69.87,1.13a45.44,45.44,0,0,0,4.26,12.94l.51,1c1.27,2.59,1.27,2.59.8,2.76-1.31.49-3.92-.33-4.44-1.55C271.49,307.87,269.9,303.89,268.5,300.49Z" style="fill:#757575"/><path d="M334.12,258.39c.69-.12,1.17-.36.46-.92a11.85,11.85,0,0,0-4.11-1.92l-.69-.22a6.43,6.43,0,0,1,.57-.31c.32-.13.88,0,.91-.41,0-.25-.44-.56-.72-.8-1-.88-1.05-.92.07-1.37.64-.26.16-.43,0-.63-.41-.63-1.12-.77-1.72-1.1,0,0,0-.13,0-.18a.63.63,0,0,1,.12-.15,15.93,15.93,0,0,1,6.89,3.34c.59.44.5,4.46,0,5.06S334.64,258.54,334.12,258.39Z" style="fill:#d2d2d2"/><path d="M310.26,332c2.63-1,7.88.18,9,2.05.18.29.35.54.05.84-1.18-2.64-3.6-2.29-5.75-2.56C312.47,332.2,311.36,332.12,310.26,332Z" style="fill:#d8d8d7"/><path d="M305.5,330.94c.36,0,.94.38,1,0s-.55-.54-.88-.71a50.5,50.5,0,0,1-11.94-9.08A36.05,36.05,0,0,1,283,299a1,1,0,0,0-.33-.67,8.48,8.48,0,0,1-2-9.45c.74-2.31,2.62-3.47,4.45-4.69.85-2.66,2.39-5,3.57-7.43,1.79-3.73,5.5-6.21,6.27-10.57.76-.22.92-1,1.31-1.55a9.41,9.41,0,0,1,3-3.16c1.52-1.31,3.68-1.26,5.22-2.56,1.67-.85,3.1-2.21,5.07-2.39a.72.72,0,0,0,1.08-.23c.14-.71.7-.82,1.26-1,2.37-.65,4.77-1.18,7.19-1.65a9.24,9.24,0,0,0,6.26-4.25c-1.9-.72-3.28.33-4.59,1.47a8,8,0,0,1-6.09,2.15,44.78,44.78,0,0,0-22.42,3.72c-.47.21-.92.46-1.1,0-.85-2.38-2.61-1.62-3.88-1-4.65,2.34-8,6.27-10.89,10.54a4,4,0,0,0-.27,3.6c.22.64.52.93,1,.22.21-.29.33-.94.68-.77s.19.79.05,1.23c-.76,2.44-1.72,4.8-2.71,7.15a26.57,26.57,0,0,0-2.29,13.86c.27,3,1.51,9.57,1.62,9.86,2.17,5.73,4.55,11.35,8.51,16.08a41,41,0,0,0,21.73,13.83A.65.65,0,0,1,305.5,330.94Z" style="fill:#8e8e8e"/><path d="M339.52,310.39a10.16,10.16,0,0,1-4.35,1.95c-1.79.57-2.5.12-3.08-2a15.11,15.11,0,0,1,6.78-13.54,6.29,6.29,0,0,1,6.16-.63c1.15.05,1.51.89,1.59,1.86a7.36,7.36,0,0,1-.57,4,40.47,40.47,0,0,1-3.33,5.68A6.69,6.69,0,0,1,339.52,310.39Z" style="fill:#231f20"/><path d="M341.28,279.58c-3.88-2.57-7.52-5.39-9.58-9.84-.42-.9-1.12-1.89-.24-2.89s1.94-.71,3-.42c4.91,1.38,8,4.89,10.2,9.4a2.94,2.94,0,0,1-.71,3.71A1.7,1.7,0,0,1,341.28,279.58Z" style="fill:#231f20"/><path d="M295,266.2a10.67,10.67,0,0,1,3.72-5c.58.15,1.34-.34,1.7.54-.47,1.51-2.13,2-2.74,3.36-.27.6-1.12,1.15-.4,1.87s1.29,0,1.83-.4c2.41-1.9,5.23-2.39,8.16-2.51a15.67,15.67,0,0,1,1.88.33c.57.13,1.19.26,1.51-.41a1.72,1.72,0,0,0-.38-2c-.44-.5-1.37-.58-1.28-1.54,1.18-1.49,2,0,2.95.42,1.23,1.3,1.15,2.79.67,4.35a2.32,2.32,0,0,1-1.08,2c-3.31,2.2-6.63,4.39-10.91,3.17a11,11,0,0,1-3.75-1.24C295.82,268.45,294.88,267.68,295,266.2Z" style="fill:#4a4a4a"/><path d="M339.52,310.39c2.83-2.13,4.51-5.17,6-8.32,1.13-2.39.91-4.36-.49-5.86.71-.48.43-1.06.11-1.62s-.44-.91.06-1.32c2-.09,4.19,2.57,4.13,5a13.86,13.86,0,0,1-.76,3.58c-1,2.13-1.88,4.34-3.55,6.1A6.54,6.54,0,0,1,339.52,310.39Z" style="fill:#d3d3d3"/><path d="M295.43,290c-.65-3.27-2.09-5.53-4.85-6.75-.25-.11-.69-.07-.63-.51,0-.1.46-.12.7-.2,1.42-.5,2.53.4,3.47,1.16,3.08,2.48,4.54,8.17,3.08,11.9a8,8,0,0,1-5.64,4.77c-.33.1-.81.35-1,0s.18-.74.48-.94a15.32,15.32,0,0,0,2.26-2.34C295.37,295,295.65,292.45,295.43,290Z" style="fill:#d5d5d5"/><path d="M305.58,314.14c.43-1.69,1.63-1.18,2.72-1a7.31,7.31,0,0,1,6.39,6.18c.21,2.63-2.42,5.32-5.22,5.33-.43-1-1.21-.63-1.93-.53-1.22.18-2.43.61-3.67,0a.25.25,0,0,1,0-.15,3,3,0,0,1,.33-.18c1-1,2.47-.72,3.71-1a3.78,3.78,0,0,0,3.19-3.49c-.34-2.16-2.23-2.7-3.67-3.69C306.82,315.18,305.85,315.15,305.58,314.14Z" style="fill:#c8c8c8"/><path d="M280.42,288.53a6.1,6.1,0,0,1,4.73-4.32,12.91,12.91,0,0,1,3.58.19,1.81,1.81,0,0,1-.41,1.77,6.55,6.55,0,0,0-2.9,4.78,4.91,4.91,0,0,0,4.94,5.36c.9.23,1.08.74.57,1.51a7.4,7.4,0,0,1-6.77,1.44c-.22-.48-.6-.95-.05-1.45,1.95-.36,1.91-.33.74-2-2-2.75-2.29-5.62-.51-8.59.14-.23.53-.47.22-.78-.15-.14-.47.07-.71.16a3.74,3.74,0,0,0-1.64,1.56c-.39.55-.56,1.37-1.46,1.33C280.29,289.31,280.29,288.94,280.42,288.53Z" style="fill:#494949"/><path d="M316.72,278.6a8.16,8.16,0,0,1,9.05,1.93c1.94,2.33,2.15,6.72.46,9.58-1.56,2.65-3.54,4.57-6.83,4.32,0-1,.89-.93,1.46-1.07a1.54,1.54,0,0,0,1.31-1.38,15.11,15.11,0,0,1,1.53-2.45,7.45,7.45,0,0,0,1.21-3.24c.53-3.92-1.25-5.89-5.64-6.24C318.28,279.83,317.07,280,316.72,278.6Z" style="fill:#231f20"/><path d="M305.58,314.14c2,1,4.11,2,5.68,3.76.3.35,1,.59.32,1.19-.46.18-.91.5-1.43.15-1.63-2.14-3.68-1.33-5.66-.92a11,11,0,0,1-7.25-1.59,2,2,0,0,0-1.6-.43c-.58.06-.74-.37-.9-.8.18-1.95,1.76-2.12,3.09-2.47a12.19,12.19,0,0,1,5,.21,5.48,5.48,0,0,1,2.81.87Z" style="fill:#4a4a4a"/><path d="M328.81,320.1c.94,1.27,2,2.58,1,4.23-1.29,2.12-3.43,2.76-5.71,2.85a4.41,4.41,0,0,1-4.69-3.17,3.44,3.44,0,0,1,1.28-4.48,7.39,7.39,0,0,1,6.9-.79A1.57,1.57,0,0,1,328.81,320.1Z" style="fill:#231f20"/><path d="M300.61,270.39a16.49,16.49,0,0,0,10.31-3.32,5.31,5.31,0,0,0,1.69-1.8c.49,2.32-1.34,3.53-2.45,4.89-2.24,2.74-8.29,3.8-11.52,2.36a6.27,6.27,0,0,1-1.12-.76c-.19-.14-.47-.3-.28-.59.07-.11.34-.12.52-.11.95.06,1.89.17,2.84.17.26,0,.84.22.78-.4C301.37,270.71,300.78,270.74,300.61,270.39Z" style="fill:#d2d2d2"/><path d="M319.49,297.33c-4.37,1-8.18-2-9.37-7.41-.39-1.77-1-3.59-.08-5.37.19-.38.14-1.13.67-1s.28.74.25,1.17a13.65,13.65,0,0,0,1,6.89c1.06,2.3,2.64,3.82,5.17,4.12a10.5,10.5,0,0,0,7.12-1.19,5.16,5.16,0,0,0,2.27-2.75c.14-.4.58-.91,1-.69s-.06.67-.2,1C325.91,295.35,323.26,296.73,319.49,297.33Z" style="fill:#d6d6d6"/><path d="M320.14,260.38c-.18-3.32,1.43-4.69,5-4.31a9.35,9.35,0,0,1,4.72,2.27,4.27,4.27,0,0,1-1.57,6.63c-2.42,1-6.4-.41-7.81-2.72A2.54,2.54,0,0,1,320.14,260.38Z" style="fill:#231f20"/><path d="M327.8,334.75c-1.54.08-2.86.16-4.19.22-.24,0-.57-.05-.59-.37s.32-.32.54-.37c3-.65,5.6-2.33,8.41-3.48a5.9,5.9,0,0,0,2.35-1.93c.7-.9,1.6-.69,2.38-.09s.4,1.34-.06,2a5.13,5.13,0,0,1-2.21,1.78A59.28,59.28,0,0,1,327.8,334.75Z" style="fill:#d2d3d2"/><path d="M310.42,319.24c.39,0,.7-.62,1.15-.15-.21,3-2,4.61-5.29,4.61-.69,0-1.35.16-2,.15a18.11,18.11,0,0,1-7.93-3.55,4.21,4.21,0,0,1-1.59-4.79l.76.66c2.2,3.69,5.61,5.16,9.57,5.63A6,6,0,0,0,310.42,319.24Z" style="fill:#231f20"/><path d="M300.34,298.53a.55.55,0,0,1-.19,0,2.48,2.48,0,0,1-.27-.18c2.18-1.81,4.61-2.21,6.36-1.06a6.23,6.23,0,0,1,2.95,7,3.79,3.79,0,0,1-3.87,3.06c.11-1.57,1.87-2.52,1.45-4.29a14.11,14.11,0,0,0-.41-2.09,3.11,3.11,0,0,0-3.27-2.33C302.17,298.66,301.24,299.13,300.34,298.53Z" style="fill:#cfcfce"/><path d="M332.09,310.38c.68,1.24,1.53,2.2,3.08,2l1.47,1.56a6.77,6.77,0,0,1-2.47.67,5.32,5.32,0,0,1-4.84-3.27,6.8,6.8,0,0,1,.73-6.37c.16-.26.35-.68.7-.56.55.19.21.65.12,1a8,8,0,0,0,0,4.27C331,310.27,331.16,311,332.09,310.38Z" style="fill:#d2d2d2"/><path d="M341.28,279.58a4.67,4.67,0,0,0,2.67,0,1.3,1.3,0,0,0,1.52-.26c.35-.29.23-1.2.87-.89.27.13.24.92.35,1.41a2.1,2.1,0,0,1-.83,2.89c-1.16.6-2.46,1.19-3.7,0-1.47-1.12-3.46-1.23-4.78-2.67-.65-.71-1.43-1.3-2.14-2-.22-.2-.61-.45-.29-.78s.58,0,.84.19c1.14.72,2.27,1.46,3.42,2.14C339.88,280,340.6,280.29,341.28,279.58Z" style="fill:#d3d2d2"/><path d="M307.53,288.78c-.46-4.38.69-8.11,4.19-10.82.31-.24.72-1,1.23-.32.33.44-.08.82-.4,1.16-3.76,3.93-4.68,8.45-2.47,13.61.12.28.21.81.09.9-.38.27-.73-.1-.95-.38A8.22,8.22,0,0,1,307.53,288.78Z" style="fill:#6a6b6b"/><path d="M288.1,285.77l.63-1.38c4,.82,6,3.48,5.47,7.65-.28,2.4-.78,4.71-3.27,5.78.1-.57.16-1.12-.62-1.22-.34-.78.21-1.23.61-1.7a6.08,6.08,0,0,0,1.33-4c0-2.37-.66-3.44-2.82-4.38A3.66,3.66,0,0,1,288.1,285.77Z" style="fill:#2a2a2a"/><path d="M320.14,260.38a6.66,6.66,0,0,0,7.09,4.37c2.83-.32,4.18-3.57,2.67-6.42.1-.07.26-.21.28-.19,1.89,1.74,1.47,6.57-.8,7.26-4,1.2-5.55,1.65-8.56-1.36C319.75,263,319.27,261.81,320.14,260.38Z" style="fill:#d4d5d5"/><path d="M307.3,303.33c.18,1.79-.93,2.88-2,4-1.69,1-3.46,1.92-5.26.38a5.54,5.54,0,0,1-2-6.1,1.47,1.47,0,0,1,.82.73,9.46,9.46,0,0,1,.57,1.86,3.92,3.92,0,0,0,1.52,2.18c.55.37,1.24.68,1.73.21.18-.17-.66-.54-1-.88a3.2,3.2,0,0,1-1.1-1.78c.08-.82-.43-1.76.41-2.44.71.17.71.83.88,1.36a2.49,2.49,0,0,0,2.45,2.05c1.3-.05,1-1.37,1.26-2.25a2.34,2.34,0,0,1,.25-.72C307.12,301.56,306.82,302.87,307.3,303.33Z" style="fill:#454545"/><path d="M328.81,320.1c-3.59-2.51-8-1.5-9.36,2.06-.27.7,0,1.24,0,1.85l-.06.39c-.54-.89-1.8-1.41-1.35-2.8,1.34-4.16,7.24-5.9,10.57-3.14C329.2,319,329.68,319.41,328.81,320.1Z" style="fill:#d8d8d7"/><path d="M330.56,282.71a14.83,14.83,0,0,1-1,8.18c-.26.57-.76,1.39-1.27,1.18s0-1,.2-1.53a16.14,16.14,0,0,0,.56-8.83,3,3,0,0,0-1.33-2.07c-.4-.23-.7-.71-.32-1.15s.83-.15,1.19.12A5.13,5.13,0,0,1,330.56,282.71Z" style="fill:#757575"/><path d="M309.56,256.54l1.08-.23a7.32,7.32,0,0,1,5.61,2c1.71,1.41,1.93,4.81.34,6.79-.68.84-1.34,2.65-2.37,2.06-.72-.41.78-1.65,1.29-2.5,2.27-3.81.21-6.09-3.59-7.27C311.12,257.13,310.08,257.64,309.56,256.54Z" style="fill:#676767"/><path d="M307.3,303.33c-.55-.35-.55-1.25-1.31-1.39a1,1,0,0,1-.45-.35c-1.87-2.49-2.51-2.5-4.38,0-.58.76.27,1.68-.25,2.45a1.92,1.92,0,0,1-1-1.32c-.42-1.21-.41-1.21-1.31-.28-.38-.11-.42-.48-.55-.78.1-1.54,1.13-2.36,2.26-3.09l1.46-.38c2.59-.63,5.3.74,5.27,3.66A9.91,9.91,0,0,0,307.3,303.33Z" style="fill:#231f20"/><path d="M311.94,260.92c-1-.2-1.86-1.22-2.92-.29-.75.53-1.61.32-2.42.38-2.12-.19-4.08.89-6.19.78l-1.69-.54a13.44,13.44,0,0,1,5.78-2.32,18.13,18.13,0,0,1,5.55.52A3.1,3.1,0,0,1,311.94,260.92Z" style="fill:#231f20"/><path d="M348.57,301.87c-.58-.31-.23-.64-.1-1.06,1.06-3.51-.17-6.3-3.26-7.54-.13-.43-.5-.9-.15-1.28.14-.15.7,0,1,.17C350.2,293.92,351.39,298.6,348.57,301.87Z" style="fill:#616261"/><path d="M284,298.1c-.09.41.6.71.18,1.17L283,299c-3.35-2.08-4.48-6.6-2.6-10.49.09.36.19.71.59.85a1.06,1.06,0,0,1,.25.72A10,10,0,0,0,284,298.1Z" style="fill:#231f20"/><path d="M316.72,278.6a4.46,4.46,0,0,0,2.5,1.06,1.21,1.21,0,0,1-1.05.71,4.71,4.71,0,0,0-4.12,4.16,1.74,1.74,0,0,1-.5,1c-.87.28-1.16-.47-1.59-1C312.3,281.52,313.76,279.41,316.72,278.6Z" style="fill:#4a4a4a"/><path d="M312,284.57a2.58,2.58,0,0,1,1.32,1c1.2,1.88,1.09,4.23,2.13,6.17a1.72,1.72,0,0,1-.49,1.54C311.91,291.09,311.88,287.84,312,284.57Z" style="fill:#231f20"/><path d="M309.47,324.66c2.47-1,4.64-2.34,5.22-5.33,1.37.15,1,1.15.77,1.88a6.11,6.11,0,0,1-4,3.82c-.53.21-1.07.36-1.61.52s-1.3.6-1.52,0S309.3,325.27,309.47,324.66Z" style="fill:#616262"/><path d="M314.92,293.28l.2-1.28a26.52,26.52,0,0,0,7.35,0c.27,1.17-.26,1.66-1.33,1.82-.59.09-1.29,0-1.72.6A5.85,5.85,0,0,1,314.92,293.28Z" style="fill:#4a4a4a"/><path d="M342.15,282.67c3.11.54,3.91,0,4.53-2.88,1.61.14,1,1.39.85,2.12-.47,2.09-5,3.13-6.43,1.56a1.63,1.63,0,0,1-.21-.47Z" style="fill:#626262"/><path d="M305.64,314.11c-1,0-1.86-.64-2.81-.87A2.33,2.33,0,0,1,305.64,314.11Z" style="fill:#c8c8c8"/><path d="M281.43,282.53c.43,0,.91-.35,1.11,0s-.3.63-.6.82a11,11,0,0,0-4.47,12.79c.15.46,1,1.06.26,1.4-.53.24-1.09-.54-1.35-1.15a12.29,12.29,0,0,1-.26-7.82c.6-2.62,1.71-4.75,4.28-5.75C280.76,282.69,281.14,282.62,281.43,282.53Z" style="fill:#525252"/><path d="M282.64,274.32c-1.91-.11-2.17-1.45-1.8-2.9a8.85,8.85,0,0,1,4.66-5.85,2.55,2.55,0,0,1,3.72,1.19.83.83,0,0,1-.74.71,4.23,4.23,0,0,0-4,3.46c-.19.68,0,1.46-.53,2-1.33,0-1.14-1-1.1-1.87a7.06,7.06,0,0,1,2-3.71c.12-.14.31-.18.42-.34a1.3,1.3,0,0,0-.47.32,12.52,12.52,0,0,0-2.4,3.26,2,2,0,0,0,.71,2.53C283.81,273.8,283.72,273.9,282.64,274.32Z" style="fill:#231f20"/><path d="M289.52,266.75c.5-.44-.39-1.56.41-1.56,1,0,.83,1,.88,1.8.23,3.9-2,6.11-4.91,7.85a3.79,3.79,0,0,1-3.13.11s-.06-.12-.05-.17a.58.58,0,0,1,.08-.18c1.36-.9,2.95-1.36,4.16-2.56C288.46,270.58,288.91,268.64,289.52,266.75Z" style="fill:#aeaeaf"/><path d="M289.52,266.75c.51,3.57-2.52,7.11-6.72,7.86a1.68,1.68,0,0,0-.16-.29c.31-.21,1.08-.45.22-.83-1.63-.73-1.48-1.81-.85-3.1a1.13,1.13,0,0,1,1.24.56c.17.67-.49,1.7.78,1.9a8.26,8.26,0,0,0,4.48-5.6l.7-.5A1.22,1.22,0,0,1,289.52,266.75Z" style="fill:#414242"/><path d="M334.38,307.68c-.68.3-1,.12-.76-.67a15.81,15.81,0,0,1,4.66-7.84c.38-.33.86-.76,1.12.09C340.3,302.18,337.36,307.08,334.38,307.68Z" style="fill:#737373"/><path d="M344,300.75a14.21,14.21,0,0,1-6.94,9.14c-.46-.34-1-.63-1-1.34,2.54-1.4,3.67-3.88,4.6-6.51A7.73,7.73,0,0,1,344,300.75Z" style="fill:#929292"/><path d="M344,300.75c-.8,1.24-2.08,1.19-3.3,1.29,0-.71,0-1.42,0-2.13,0-.94-.72-2.19.74-2.59a2.86,2.86,0,0,1,2.86.47C345.12,298.67,344.64,299.81,344,300.75Z" style="fill:#6d6d6d"/><path d="M336.13,308.55c.44.36,1,.64,1,1.34-1.14.65-2.24,2-3.53.22-.32-.44-.78-1,.41-1A7.1,7.1,0,0,0,336.13,308.55Z" style="fill:#717171"/><path d="M340.68,276.08a11.25,11.25,0,0,0-6.95-6.16,2.12,2.12,0,0,1-1.31-2c-.16-1,.77-.49,1.19-.39,4.31,1,7.26,3.77,9.29,7.72C342.79,276.57,342.54,276.66,340.68,276.08Z" style="fill:#919292"/><path d="M340.68,276.08c.65-.51,1.85.52,2.22-.81.16.28.46.57.44.83-.07.75,1.15,1.74-.05,2.2a1.8,1.8,0,0,1-2.46-1.45C340.76,276.6,340.73,276.34,340.68,276.08Z" style="fill:#6c6d6d"/><path d="M338.94,276a5.9,5.9,0,0,1-.65-.43,19.61,19.61,0,0,1-1.52-1.48c-.59-.69-1.57-1.07-1.69-2.15a6.13,6.13,0,0,1,2.31,1.64,12,12,0,0,1,1.51,1.77C339,275.44,338.93,275.7,338.94,276Z" style="fill:#878787"/><path d="M300.41,261.78c2-.86,4.06-1.69,6.34-1.29,1.15,1.19,1.7,2.47.59,4-3.19.35-6.39.67-8.77,3.26-.64.7-1.11.17-1.64-.19a1,1,0,0,1-.38-1.63A14,14,0,0,1,300.41,261.78Z" style="fill:#959595"/><path d="M307.34,264.49a6.56,6.56,0,0,0-.59-4l2.28.13c.74.58,1.8.75,2.22,1.75a2.5,2.5,0,0,1-.35,2.41c-.49.75-1.13.3-1.72.16Z" style="fill:#7c7c7c"/><path d="M303.47,268.49c-1,.08-2,.19-3,.24-.22,0-.46-.17-.69-.26a2.53,2.53,0,0,1,.45-.58,11.27,11.27,0,0,1,7.69-1.92c.28,0,.69-.11.77.35s-.32.54-.56.68A13.42,13.42,0,0,1,303.47,268.49Z" style="fill:#838383"/><path d="M288.1,285.77c1.86.14,3.56.72,4.26,2.68a6.85,6.85,0,0,1-.84,6.47c-.4.57-1,1-1.22,1.69a1.91,1.91,0,0,1-2.22,0C284.23,294.32,283.44,288.93,288.1,285.77Z" style="fill:#737474"/><path d="M284,298.1c-2.73-1.68-3.67-4.44-3-8.72.93-1.48,1.48-3.36,3.62-3.52.34,0,.69-.54,1-.13s-.19.68-.39,1a7.13,7.13,0,0,0-.62,8,14.34,14.34,0,0,0,1.66,2.12c.27.34,1,.47.77,1-.09.24-.77.31-1.2.33C285.23,298.18,284.6,298.12,284,298.1Z" style="fill:gray"/><path d="M322.46,292a7.58,7.58,0,0,1-7.35,0,14.5,14.5,0,0,1-1.84-6.42c.45-3.62,2.28-5.75,6-5.91,6.56-.4,7.31,5.34,5.38,9.41A10.77,10.77,0,0,1,322.46,292Z" style="fill:#7e7e7e"/><path d="M305.09,322.16c-3.69.47-8.61-2.6-9.59-6,.26-1,.73-.76,1.35-.29a10.4,10.4,0,0,0,7.5,2A4,4,0,0,1,305.09,322.16Z" style="fill:#909090"/><path d="M305.09,322.16l-.75-4.27a9.5,9.5,0,0,0,2-.42c2-.87,3.12.16,4.07,1.77C309.79,321.5,307.75,322.61,305.09,322.16Z" style="fill:#727171"/><path d="M298.3,314.45a14.69,14.69,0,0,1,7.1,1.48,3.42,3.42,0,0,1,.45.31c-.19.16-.37.43-.58.46a9.66,9.66,0,0,1-7.25-1.34,2.27,2.27,0,0,1-.43-.59Z" style="fill:#828283"/><path d="M323.89,324.17a4,4,0,0,1-1.68,0c-.69-.18-1.37-.3-1.55-1.19a2,2,0,0,1,.67-1.91c1.09-1.07,4-1.42,5.39-.78.74.34.73.81.5,1.4A3.69,3.69,0,0,1,323.89,324.17Z" style="fill:#737373"/><path d="M327.61,325.08a5.68,5.68,0,0,1-5.19,1c-.45-.13-1-.49-.88-.89.13-.64.69-.18,1.07-.14a6.74,6.74,0,0,0,4.41-1.41A1.28,1.28,0,0,1,327.61,325.08Z" style="fill:#9b9a9a"/><path d="M327.61,325.08a2.23,2.23,0,0,1-.59-1.46c.12-.22.18-.56.36-.64.54-.26.21-1.81,1.19-1.1a1.67,1.67,0,0,1,.08,2.43A5.17,5.17,0,0,1,327.61,325.08Z" style="fill:#6f6f6f"/><path d="M326.93,263.61a5.57,5.57,0,0,1-3.09-.66c-.78-.43-1.86-1-1.78-1.79.1-1.06,1.23-1.57,2.22-1.82a4.64,4.64,0,0,1,3.3.54c.78.41,1.72,1,1.57,2A2.07,2.07,0,0,1,326.93,263.61Z" style="fill:#727272"/><path d="M325.11,257.06c1.67.2,3.27.53,4.07,2.35.07.17.19.43.12.53-.22.33-.43,0-.59-.12a5.56,5.56,0,0,0-3.36-1.21.82.82,0,0,1-.18,0c-.6-.29-1.69.83-1.83-.45S324.27,257,325.11,257.06Z" style="fill:#9a9a9a"/><path d="M325.11,257.06c-.56.24-1.62,0-1.43,1s1.21-.07,1.67.53c-1.07.31-2.27.19-3.16,1.06-.2.19-.49.55-.77.19a1.38,1.38,0,0,1-.18-.91C321.39,257.44,322.85,256.74,325.11,257.06Z" style="fill:#707070"/><path d="M301.16,301.55c.12-1.37.6-2.4,2.15-2.39,1.76,0,2.29,1.33,2.68,2.77,0,.13,0,.26,0,.39,0,1.29.18,2.78-1.22,3.3s-3.15-1.29-3.45-2.92C301.28,302.33,301.23,301.94,301.16,301.55Z" style="fill:#7a7a7a"/><path d="M298.63,302.4a7.26,7.26,0,0,1,.78-1.7c.27-.34.69-1,1.13-.74s-.08.82-.24,1.16c-.54,1.16.45,1.91.62,2.87a4.32,4.32,0,0,0,2.29,2.21,5.84,5.84,0,0,1,.58.42,3.31,3.31,0,0,1-.6.46c-1.6.74-2.64-.2-3.55-1.38A7,7,0,0,1,298.63,302.4Z" style="fill:#929292"/><path d="M288.52,267.26c.17,2.86-2.12,5.71-4.48,5.6a5.48,5.48,0,0,1,2.84-5.75C287.52,266.76,288,266.65,288.52,267.26Z" style="fill:#696969"/><path d="M283.26,271c-.47-.06-1-.06-1.24-.56a8,8,0,0,1,3.29-3.84c.25-.13.6-.24.83.07,0,0-.26.36-.44.52A7.81,7.81,0,0,0,283.26,271Z" style="fill:#838383"/><path d="M205.38,24.32c.14.21.29.41.41.62.29.52,0,1-.17,1.48a.85.85,0,0,0,0,.66c.22.55.46,1.09.66,1.65a9.07,9.07,0,0,1,.14,5.3,7.54,7.54,0,0,1-.91,2.3c-.2.32.07.55.2.73a1,1,0,0,1-.13,1.39c-.61.69-1.19,1.42-1.83,2.09a1.08,1.08,0,0,1-1.31.31,1.28,1.28,0,0,0-1.48.07,6.87,6.87,0,0,1-3.61.83.69.69,0,0,0-.61.34,1.43,1.43,0,0,1-1.41.62,12.49,12.49,0,0,1-2.93-.83,1.34,1.34,0,0,1-1-1.17,1.74,1.74,0,0,0-.68-1.23,11.18,11.18,0,0,1-2.07-2.92A2.35,2.35,0,0,0,187.19,35c-.47-.13-.64-.54-.77-1a8,8,0,0,1-.24-2.62.89.89,0,0,1,.79-.93,1.09,1.09,0,0,0,1-1.14,10.45,10.45,0,0,1,.63-2.18,1.32,1.32,0,0,0,0-1.1,2,2,0,0,1,.47-2.39,9.48,9.48,0,0,1,3-2.47,1,1,0,0,1,1.11.06,1.34,1.34,0,0,1,.37.3c.37.54.89.53,1.49.49a21,21,0,0,1,5.64.55,1.3,1.3,0,0,0,1.1-.08,1.57,1.57,0,0,1,2.18.3A11.89,11.89,0,0,1,205.38,24.32Z" style="fill:#231f20"/><path d="M205.52,28.37a5.84,5.84,0,0,1,.45,1.21.11.11,0,0,1-.16,0,.17.17,0,0,1-.08-.14c0,.06,0,.11,0,.16a9.86,9.86,0,0,1-2.51,6.63,8.23,8.23,0,0,1-1.34,1.16c-.08.06-.16.15-.28.09a.55.55,0,0,1-.16-.29,1.77,1.77,0,0,0-1-1.16,1.72,1.72,0,0,0-2.41.93,1.59,1.59,0,0,0,0,.83,4.4,4.4,0,0,1,.27.73c-.06.22-.25.2-.4.2a13.06,13.06,0,0,1-3.13-.2,1.59,1.59,0,0,0-1.06,0,.13.13,0,0,1-.19-.06,1.73,1.73,0,0,0,.17-1.64c0-.1,0-.24.07-.29s.21.06.29.15a1.17,1.17,0,0,1,.14.27,2.74,2.74,0,0,1,.11.33,1.18,1.18,0,0,0,0-.35,2.4,2.4,0,0,0-2.36-2,.72.72,0,0,0-.43.11c-.32.12-.65.22-.77.6a1.26,1.26,0,0,0,.11,1c.08.21.25.4.19.66a1.61,1.61,0,0,1-1.06-.71c0-.23-.11-.46-.16-.69-.18-.87.09-1.77,1.4-1.57a.82.82,0,0,0,.21,0c-.06-.05-.13,0-.2-.06a1.14,1.14,0,0,0-1.5,1.34c0,.24.24.45.08.71-.19.05-.31-.06-.42-.18a6.65,6.65,0,0,1-.81-.92,2.61,2.61,0,0,0-1.49-1.11c-.08,0-.17,0-.21-.14a1.78,1.78,0,0,1-.19-.86c.06-.15-.07-.31,0-.47s.09-.25.21-.18.21-.05.25-.16.06-.17.18-.17.11,0,.1-.15a1.57,1.57,0,0,1,.06-.83c.11-.25.21-.15.27,0s0,.25.12.24.1-.16.12-.25a14.83,14.83,0,0,1,.93-3.84,1.62,1.62,0,0,0,.13-1.4A4.13,4.13,0,0,0,190.53,24a14.57,14.57,0,0,1,1.78-2.27.47.47,0,0,1,.27-.16c.42,0,.6.38.82.66s-.07.22-.17.27-.53.2-.45.38.37-.07.54-.13a7,7,0,0,1,3.05-.3,21.1,21.1,0,0,1,4.63.72.93.93,0,0,0,.81-.14c1-.65,1.18-.36,1.79.17A11.86,11.86,0,0,1,205,24.66a1.28,1.28,0,0,1,.2,1.54.78.78,0,0,0-.18,1A7.77,7.77,0,0,0,205.52,28.37Z" style="fill:#b0b0b1"/><path d="M192.58,21.62c-.52.62-1,1.25-1.56,1.87a5.12,5.12,0,0,0-.78,1.42,1.65,1.65,0,0,1-1.11,1,1.42,1.42,0,0,1,.21-1.7,9.13,9.13,0,0,1,2.9-2.55A.4.4,0,0,1,192.58,21.62Z" style="fill:#d5d4d4"/><path d="M203.43,40.27a1,1,0,0,1-1.31,0c-.15-.18.06-.24.14-.3a10.5,10.5,0,0,0,2.21-2.24l.16-.22c.4-.53.4-.53.48-.46a1,1,0,0,1,.15,1.08C204.64,38.88,204,39.63,203.43,40.27Z" style="fill:#757575"/><path d="M187.87,31.21c-.1-.13-.2-.2-.24,0a2.74,2.74,0,0,0,0,1l0,.17-.12-.08c-.06-.05-.08-.19-.18-.14s-.07.15-.09.23c-.07.3-.08.31-.29.13s-.11,0-.13.06a.92.92,0,0,0,0,.47l0,0h0a3.68,3.68,0,0,1,0-1.77,1.78,1.78,0,0,1,1-.52C188,30.87,187.84,31.09,187.87,31.21Z" style="fill:#d2d2d2"/><path d="M205.52,28.37A2.22,2.22,0,0,1,205,26.3c0-.07.07-.13.17-.1-.42.52-.09,1,.08,1.45C205.32,27.89,205.42,28.13,205.52,28.37Z" style="fill:#d8d8d7"/><path d="M205.8,29.46c0-.08,0-.23-.1-.22s-.05.17-.05.26a11.67,11.67,0,0,1-.61,3.41,8.33,8.33,0,0,1-3.43,4.53.22.22,0,0,0-.1.14,2,2,0,0,1-1.73,1.4,2.16,2.16,0,0,1-1.43-.42,13.62,13.62,0,0,1-1.9,0c-1,0-1.86-.48-2.83-.18-.13-.13-.3-.08-.46-.11a2.17,2.17,0,0,1-1-.28c-.43-.17-.65-.63-1.07-.8a3.34,3.34,0,0,1-1-.79c0-.11,0-.19-.16-.2s-.24-.06-.33-.16c-.38-.42-.75-.86-1.1-1.3a2.14,2.14,0,0,0-1.53-.84c.05.47.41.64.78.79a1.85,1.85,0,0,1,1.08,1A10.35,10.35,0,0,0,191.94,40c.09.07.19.14.11.23-.4.43-.06.71.21.9a7,7,0,0,0,3.31,1.13.93.93,0,0,0,.77-.32c.11-.11.14-.2-.06-.23s-.23,0-.23-.06.14-.12.25-.14c.58-.1,1.17-.15,1.76-.2a6.14,6.14,0,0,0,3.09-1c.59-.37,1.81-1.32,1.86-1.37a12.47,12.47,0,0,0,2.41-3.44,9.47,9.47,0,0,0,.55-5.92A.15.15,0,0,1,205.8,29.46Z" style="fill:#8e8e8e"/><path d="M198,24.62a2.35,2.35,0,0,1,.86.69c.31.31.29.5-.08.84a3.49,3.49,0,0,1-3.5,0,1.45,1.45,0,0,1-.78-1.2c-.11-.24,0-.4.22-.52a1.7,1.7,0,0,1,.89-.31,9.35,9.35,0,0,1,1.52.09A1.55,1.55,0,0,1,198,24.62Z" style="fill:#231f20"/><path d="M191.47,27.51a5.66,5.66,0,0,1-1,3c-.14.18-.27.43-.57.35s-.35-.32-.4-.57a3.75,3.75,0,0,1,.86-3.09.68.68,0,0,1,.84-.24A.39.39,0,0,1,191.47,27.51Z" style="fill:#231f20"/><path d="M193.59,38.43a2.46,2.46,0,0,1-1.41-.24c0-.13-.21-.24-.07-.41.36-.06.63.23,1,.21.15,0,.35.11.43-.11s-.13-.27-.27-.33a3.11,3.11,0,0,1-1.38-1.41,3.62,3.62,0,0,1-.13-.42c0-.13-.07-.27-.24-.27a.4.4,0,0,0-.37.29c-.06.14,0,.34-.18.43-.43-.09-.22-.41-.22-.65a.93.93,0,0,1,.82-.6.54.54,0,0,1,.52,0c.8.45,1.6.9,1.8,1.91a2.55,2.55,0,0,1,.14.9A.73.73,0,0,1,193.59,38.43Z" style="fill:#4a4a4a"/><path d="M198,24.62a4.87,4.87,0,0,0-2.34-.36,1.13,1.13,0,0,0-1.15.72c-.17-.09-.26,0-.35.15s-.14.19-.28.13a1.15,1.15,0,0,1,.6-1.38,3.2,3.2,0,0,1,.82-.22,5.16,5.16,0,0,1,1.63.09A1.51,1.51,0,0,1,198,24.62Z" style="fill:#d3d3d3"/><path d="M198.44,35.84a2,2,0,0,0-.88,1.71c0,.06.06.15,0,.18s-.07-.08-.11-.12a.83.83,0,0,1-.13-.84,2.68,2.68,0,0,1,2.12-1.89,1.85,1.85,0,0,1,1.57.66c.05.06.16.13.1.22s-.17,0-.24,0a3.54,3.54,0,0,0-.72-.22A1.91,1.91,0,0,0,198.44,35.84Z" style="fill:#d5d5d5"/><path d="M202.34,31.21c-.39.09-.41-.21-.49-.45a1.69,1.69,0,0,1,.6-2,1.25,1.25,0,0,1,1.65.51c-.16.2,0,.32.09.45a1.45,1.45,0,0,1,.4.75h0l-.07-.05c-.32-.11-.41-.43-.6-.65a.87.87,0,0,0-1.05-.29c-.41.3-.32.74-.37,1.14C202.42,30.85,202.52,31,202.34,31.21Z" style="fill:#c8c8c8"/><path d="M199.72,39.08a1.41,1.41,0,0,1-1.39-.52,3,3,0,0,1-.34-.76.42.42,0,0,1,.41-.1,1.51,1.51,0,0,0,1.29.09,1.13,1.13,0,0,0,.58-1.58c0-.21,0-.3.25-.28a1.71,1.71,0,0,1,1,1.24c-.08.09-.13.22-.29.16-.28-.36-.27-.36-.48.06a1.69,1.69,0,0,1-1.71,1c-.06,0-.15-.06-.18,0s.06.09.11.13a.86.86,0,0,0,.49.17c.15,0,.34,0,.43.16S199.82,39.06,199.72,39.08Z" style="fill:#494949"/><path d="M193.85,32.66a1.89,1.89,0,0,1-.56-2.06,2.1,2.1,0,0,1,1.92-1.1,1.64,1.64,0,0,1,1.61,1c-.21.11-.28-.08-.38-.19a.36.36,0,0,0-.42-.12,3.49,3.49,0,0,1-.66-.06,1.72,1.72,0,0,0-.79.09c-.86.3-1.08.88-.69,1.82C193.94,32.21,194.11,32.44,193.85,32.66Z" style="fill:#231f20"/><path d="M202.34,31.21a4.15,4.15,0,0,1,.17-1.56c0-.1,0-.26.21-.19s.2.13.18.28c-.27.56.11.9.41,1.26a2.54,2.54,0,0,1,.44,1.66.46.46,0,0,0,.08.37c.07.11,0,.19-.07.27-.42.17-.62-.14-.83-.38a2.82,2.82,0,0,1-.48-1,1.27,1.27,0,0,1-.12-.67Z" style="fill:#4a4a4a"/><path d="M201.12,25.81c.16-.33.32-.69.76-.65a1.49,1.49,0,0,1,1.19.87,1,1,0,0,1-.16,1.3.79.79,0,0,1-1.06.21A1.71,1.71,0,0,1,201,26.2.36.36,0,0,1,201.12,25.81Z" style="fill:#231f20"/><path d="M193.86,36.84a3.81,3.81,0,0,0-1.77-1.77,1.23,1.23,0,0,0-.55-.16c.43-.34.87-.1,1.26,0a2.66,2.66,0,0,1,1.7,2.12,1.45,1.45,0,0,1,0,.31c0,.05,0,.13-.09.12s-.06-.06-.08-.1c-.09-.2-.16-.41-.26-.6s0-.19-.17-.12S193.92,36.77,193.86,36.84Z" style="fill:#d2d2d2"/><path d="M197.42,30.12a1.87,1.87,0,0,1-.54,2.71,1.8,1.8,0,0,1-1.1.58c-.1,0-.25.09-.28,0s.12-.14.22-.17a3.15,3.15,0,0,0,1.31-.92,1.47,1.47,0,0,0,.3-1.5,2.43,2.43,0,0,0-1-1.34,1.19,1.19,0,0,0-.8-.18c-.1,0-.25,0-.24-.13s.14-.06.22-.06A2.06,2.06,0,0,1,197.42,30.12Z" style="fill:#d6d6d6"/><path d="M189.75,33.88c-.66.39-1.11.2-1.42-.58a2.16,2.16,0,0,1,0-1.21,1,1,0,0,1,1.53-.38,1.67,1.67,0,0,1,.26,1.89A.59.59,0,0,1,189.75,33.88Z" style="fill:#231f20"/><path d="M204.24,24.47l.49.84s0,.12,0,.16-.1,0-.13-.07A11.6,11.6,0,0,0,203,24a1.36,1.36,0,0,0-.64-.28c-.26,0-.31-.26-.27-.48s.23-.22.42-.2a1.19,1.19,0,0,1,.6.27A13.7,13.7,0,0,1,204.24,24.47Z" style="fill:#d2d3d2"/><path d="M202.88,29.68c0-.08-.2-.08-.15-.22a1.07,1.07,0,0,1,1.5.6c.07.14.17.26.24.4a4.18,4.18,0,0,1,.1,2,1,1,0,0,1-.82.83l.06-.23a2.75,2.75,0,0,0,.15-2.56A1.38,1.38,0,0,0,202.88,29.68Z" style="fill:#231f20"/><path d="M199.68,33.93a.13.13,0,0,1,0,0,.57.57,0,0,1,0,.07,1.23,1.23,0,0,1-.89-1.2,1.44,1.44,0,0,1,1.13-1.34.88.88,0,0,1,1,.47c-.33.14-.72-.12-1,.15a3.26,3.26,0,0,0-.39.3.72.72,0,0,0-.14.92C199.51,33.54,199.71,33.68,199.68,33.93Z" style="fill:#cfcfce"/><path d="M198.77,26.15a.67.67,0,0,0,.08-.84l.17-.47c.13.15.31.23.4.44a1.23,1.23,0,0,1-.16,1.34,1.57,1.57,0,0,1-1.39.52c-.07,0-.18,0-.19-.09s.11-.11.19-.13a1.85,1.85,0,0,0,.88-.44C198.86,26.38,199,26.28,198.77,26.15Z" style="fill:#d2d2d2"/><path d="M191.47,27.51a1.08,1.08,0,0,0-.29-.54.3.3,0,0,0-.21-.28c-.1,0-.27.08-.27-.08s.16-.15.25-.22a.49.49,0,0,1,.68-.13c.25.18.5.38.39.76s.11.84,0,1.27c-.08.21-.12.43-.18.65s0,.17-.13.14-.06-.12-.05-.19c0-.31.06-.62.08-.93S191.69,27.57,191.47,27.51Z" style="fill:#d3d2d2"/><path d="M196.92,33.48a2.6,2.6,0,0,1-2.67.28c-.08,0-.28,0-.2-.22s.18-.07.28,0a2.68,2.68,0,0,0,3.06-.92c0-.05.15-.13.18-.11s.06.16,0,.24A1.9,1.9,0,0,1,196.92,33.48Z" style="fill:#6a6b6b"/><path d="M198.34,37.79l-.35,0a1.45,1.45,0,0,1,1-1.93,1.43,1.43,0,0,1,1.53.06c-.13,0-.25.09-.18.26-.12.15-.28.09-.41.05a1.4,1.4,0,0,0-1,.15.91.91,0,0,0-.6,1A.85.85,0,0,1,198.34,37.79Z" style="fill:#2a2a2a"/><path d="M189.75,33.88A1.54,1.54,0,0,0,189.9,32a1,1,0,0,0-1.6.13l-.07,0c.16-.57,1.2-1,1.58-.6.67.7.92,1,.62,1.9C190.32,33.68,190.13,33.91,189.75,33.88Z" style="fill:#d4d5d5"/><path d="M199.93,32a1.16,1.16,0,0,1,1,0c.38.24.76.51.63,1a1.28,1.28,0,0,1-1,1,.34.34,0,0,1,.06-.25,2.19,2.19,0,0,1,.32-.31.91.91,0,0,0,.29-.54c0-.15,0-.33-.14-.38s0,.19-.08.3a.74.74,0,0,1-.25.41c-.18.07-.32.27-.54.17,0-.16.1-.23.19-.32a.58.58,0,0,0,.16-.72c-.15-.26-.39-.07-.6,0a.54.54,0,0,1-.17,0C199.59,32.22,199.89,32.14,199.93,32Z" style="fill:#454545"/><path d="M201.12,25.81a1.38,1.38,0,0,0,1.41,1.71c.17,0,.25-.13.38-.19l.09,0c-.13.2-.1.52-.43.57A1.61,1.61,0,0,1,200.8,26C200.84,25.84,200.88,25.7,201.12,25.81Z" style="fill:#d8d8d7"/><path d="M193.24,29.38a3.43,3.43,0,0,1,1.79-.65c.14,0,.37,0,.38.14s-.21.1-.33.12a3.73,3.73,0,0,0-1.87.81.69.69,0,0,0-.29.49c0,.11-.07.22-.2.19s-.12-.15-.1-.26A1.19,1.19,0,0,1,193.24,29.38Z" style="fill:#757575"/><path d="M190.07,36.46l-.16-.2a1.69,1.69,0,0,1-.18-1.36,1.21,1.21,0,0,1,1.36-.78c.24.05.69,0,.67.27s-.42,0-.65,0c-1-.07-1.27.6-1.12,1.5C190,36.07,190.24,36.23,190.07,36.46Z" style="fill:#676767"/><path d="M199.93,32c0,.15-.2.25-.15.42a.22.22,0,0,1,0,.13c-.32.65-.25.78.45.9.22,0,.32-.23.53-.21a.44.44,0,0,1-.17.34c-.2.21-.21.21.08.3,0,.09-.05.14-.1.2a.92.92,0,0,1-.87-.14l-.23-.26a.91.91,0,0,1,.2-1.47A2.29,2.29,0,0,0,199.93,32Z" style="fill:#231f20"/><path d="M190.72,35.51c.06.22-.05.51.25.63s.23.3.33.46c.18.46.61.75.81,1.19l.07.4a3.1,3.1,0,0,1-1.08-.94,4.19,4.19,0,0,1-.48-1.2A.72.72,0,0,1,190.72,35.51Z" style="fill:#231f20"/><path d="M195.29,23.66c0,.15-.11.11-.21.13a1.3,1.3,0,0,0-1.21,1.46c-.07.07-.13.2-.25.17s-.07-.15-.07-.23A1.39,1.39,0,0,1,195.29,23.66Z" style="fill:#616261"/><path d="M201.31,37.34c.09,0,.08-.2.22-.16l.07.26a1.87,1.87,0,0,1-1.88,1.64c.06-.06.13-.11.11-.21a.24.24,0,0,1,.12-.13A2.32,2.32,0,0,0,201.31,37.34Z" style="fill:#231f20"/><path d="M193.85,32.66a1,1,0,0,0,0-.63.28.28,0,0,1,.26.14,1.09,1.09,0,0,0,1.29.41.4.4,0,0,1,.26,0c.15.15,0,.29,0,.43A1.46,1.46,0,0,1,193.85,32.66Z" style="fill:#4a4a4a"/><path d="M195.58,33a.6.6,0,0,1,.07-.38c.26-.45.76-.67,1-1.09a.4.4,0,0,1,.37-.06C196.93,32.34,196.27,32.68,195.58,33Z" style="fill:#231f20"/><path d="M204.09,29.3a1.68,1.68,0,0,0-1.65-.51c-.11-.3.13-.33.31-.36a1.41,1.41,0,0,1,1.2.41c.1.09.19.18.28.28s.26.2.16.31S204.23,29.27,204.09,29.3Z" style="fill:#616262"/><path d="M197.06,31.49l-.28.09a6.13,6.13,0,0,0-.77-1.51c.21-.18.37-.12.51.08s.13.27.3.29A1.35,1.35,0,0,1,197.06,31.49Z" style="fill:#4a4a4a"/><path d="M192,27c-.22-.7-.4-.81-1.07-.63-.14-.35.18-.36.35-.4.48-.12,1.17.69,1,1.16a.38.38,0,0,1-.07.09Z" style="fill:#626262"/><path d="M202.32,31.2a2.64,2.64,0,0,1,.12.67A.54.54,0,0,1,202.32,31.2Z" style="fill:#c8c8c8"/><path d="M198.38,39.5c0-.09-.17-.15-.11-.23s.16,0,.23,0a2.54,2.54,0,0,0,3.1-.43c.08-.08.11-.32.26-.2s0,.28-.1.4a2.84,2.84,0,0,1-1.58.88,1.67,1.67,0,0,1-1.63-.27C198.48,39.62,198.43,39.56,198.38,39.5Z" style="fill:#525252"/><path d="M196.56,40.12c.18.4-.07.6-.41.68a2,2,0,0,1-1.69-.34.59.59,0,0,1-.15-.89.19.19,0,0,1,.22.08,1,1,0,0,0,1.13.46c.16,0,.3-.15.48-.11.13.28-.09.34-.27.42a1.63,1.63,0,0,1-1,0s-.07,0-.11-.05a.3.3,0,0,0,.11.06,2.89,2.89,0,0,0,.92.15c.26,0,.38-.17.44-.41S196.36,39.94,196.56,40.12Z" style="fill:#231f20"/><path d="M194.28,39.5c-.14-.06-.28.24-.37.08s.11-.27.28-.37a1.91,1.91,0,0,1,2.13.18.88.88,0,0,1,.35.63l0,0h0a5.63,5.63,0,0,0-1-.59A2.76,2.76,0,0,0,194.28,39.5Z" style="fill:#aeaeaf"/><path d="M194.28,39.5a1.75,1.75,0,0,1,2.32.55l0,.06c-.08,0-.21-.17-.19,0,0,.41-.22.49-.55.5a.26.26,0,0,1,0-.31c.12-.11.4-.08.31-.36a1.91,1.91,0,0,0-1.62-.33l-.18-.09Z" style="fill:#414242"/><path d="M198,26c.13.11.13.19-.06.23a3.65,3.65,0,0,1-2.1-.13c-.11,0-.25-.1-.1-.24A1.83,1.83,0,0,1,198,26Z" style="fill:#737373"/><path d="M195.53,24.71a3.28,3.28,0,0,1,2.61.46c0,.13,0,.27-.17.34a2.51,2.51,0,0,0-1.82-.26A1.79,1.79,0,0,1,195.53,24.71Z" style="fill:#929292"/><path d="M195.53,24.71c.34,0,.46.3.61.54l-.44.23c-.19.1-.37.38-.61.12a.66.66,0,0,1-.2-.64C195,24.71,195.28,24.69,195.53,24.71Z" style="fill:#6d6d6d"/><path d="M198,25.51c0-.13,0-.27.17-.34.25.17.65.25.42.7-.06.11-.12.27-.24,0A1.64,1.64,0,0,0,198,25.51Z" style="fill:#717171"/><path d="M190.81,28a2.6,2.6,0,0,0-.54,2.08.49.49,0,0,1-.27.48c-.2.14-.18-.11-.21-.2a3.18,3.18,0,0,1,.61-2.72C190.69,27.51,190.74,27.56,190.81,28Z" style="fill:#919292"/><path d="M190.81,28c-.17-.08-.09-.44-.4-.37,0-.06.07-.16.12-.18s.24-.42.46-.22a.41.41,0,0,1,0,.66Z" style="fill:#6c6d6d"/><path d="M191,28.37a1.36,1.36,0,0,1,0,.18,4.53,4.53,0,0,1-.14.47c-.08.19-.05.44-.27.57a1.42,1.42,0,0,1,.09-.65,2.76,2.76,0,0,1,.2-.5S190.92,28.4,191,28.37Z" style="fill:#878787"/><path d="M192.11,37.79a2.55,2.55,0,0,1-.93-1.17c.12-.36.33-.61.76-.54a2.93,2.93,0,0,0,1.59,1.46c.21.06.15.21.13.36s-.1.26-.3.25A3.23,3.23,0,0,1,192.11,37.79Z" style="fill:#959595"/><path d="M191.94,36.08a1.52,1.52,0,0,0-.76.54l-.21-.48c0-.21,0-.45.13-.64a.58.58,0,0,1,.53-.18c.21,0,.18.2.21.34Z" style="fill:#7c7c7c"/><path d="M193.17,36.45c.12.2.25.39.36.59a.45.45,0,0,1,0,.17.59.59,0,0,1-.17,0,2.6,2.6,0,0,1-1.21-1.38c0-.06-.1-.13,0-.19s.15,0,.2,0A3.1,3.1,0,0,1,193.17,36.45Z" style="fill:#838383"/><path d="M198.34,37.79a1,1,0,0,1,.1-1.16,1.58,1.58,0,0,1,1.42-.51,1.49,1.49,0,0,0,.48.07.44.44,0,0,1,.23.46A1.43,1.43,0,0,1,198.34,37.79Z" style="fill:#737474"/><path d="M201.31,37.34c-.06.74-.53,1.22-1.48,1.53-.4,0-.85.05-1.11-.37,0-.07-.18-.09-.13-.19s.16,0,.24,0a1.65,1.65,0,0,0,1.72-.72,3.31,3.31,0,0,0,.26-.56c0-.09,0-.25.12-.26s.14.13.19.21S201.25,37.21,201.31,37.34Z" style="fill:gray"/><path d="M196,30.07a1.75,1.75,0,0,1,.77,1.51,3.35,3.35,0,0,1-1.13,1.06,1.35,1.35,0,0,1-1.84-.6c-.77-1.31.33-2.07,1.37-2.1A2.49,2.49,0,0,1,196,30.07Z" style="fill:#7e7e7e"/><path d="M204,30.47a2.3,2.3,0,0,1-.22,2.6c-.23.05-.23-.07-.2-.25a2.4,2.4,0,0,0-.38-1.75A.92.92,0,0,1,204,30.47Z" style="fill:#909090"/><path d="M204,30.47l-.8.6a2.19,2.19,0,0,0-.3-.37c-.39-.32-.3-.66-.06-1A1,1,0,0,1,204,30.47Z" style="fill:#727171"/><path d="M203.17,32.67a3.39,3.39,0,0,1-.44-1.62.79.79,0,0,1,0-.13c.05,0,.13,0,.16.07a2.23,2.23,0,0,1,.49,1.63.53.53,0,0,1-.08.15Z" style="fill:#828283"/><path d="M202.47,26.39a.92.92,0,0,1,.18.34c0,.16.08.31-.08.44a.46.46,0,0,1-.46.06,1.38,1.38,0,0,1-.73-1c0-.19.09-.24.24-.25A.85.85,0,0,1,202.47,26.39Z" style="fill:#737373"/><path d="M202.27,25.53a1.31,1.31,0,0,1,.75,1c0,.11,0,.25-.09.28s-.11-.12-.14-.2a1.56,1.56,0,0,0-.75-.76A.29.29,0,0,1,202.27,25.53Z" style="fill:#9b9a9a"/><path d="M202.27,25.53a.52.52,0,0,1-.24.27c-.06,0-.13,0-.17,0s-.39.15-.35-.13a.39.39,0,0,1,.49-.27A1.2,1.2,0,0,1,202.27,25.53Z" style="fill:#6f6f6f"/><path d="M189.7,32.14a1.29,1.29,0,0,1,.19.7c0,.21,0,.48-.18.55s-.45-.09-.61-.27a1.07,1.07,0,0,1-.24-.73c0-.2,0-.46.24-.53A.48.48,0,0,1,189.7,32.14Z" style="fill:#727272"/><path d="M188.54,33.2a1,1,0,0,1,.06-1.08s.07-.08.1-.08,0,.09,0,.13a1.29,1.29,0,0,0,.1.82.19.19,0,0,1,0,0c0,.15.35.26.1.42S188.62,33.38,188.54,33.2Z" style="fill:#9a9a9a"/><path d="M188.54,33.2c.11.09.17.33.36.19s-.14-.24-.07-.4c.18.19.28.45.55.54.06,0,.17,0,.12.14a.32.32,0,0,1-.17.13C189,33.93,188.71,33.7,188.54,33.2Z" style="fill:#707070"/><path d="M200.21,33.44c-.29.12-.56.13-.72-.19s0-.61.29-.84l.08,0c.26-.14.55-.33.81-.1s.07.78-.24,1Z" style="fill:#7a7a7a"/><path d="M200.65,33.87a1.68,1.68,0,0,1-.43,0c-.1,0-.28,0-.27-.16s.18-.07.26-.07c.3,0,.35-.29.53-.43a1,1,0,0,0,.21-.7,1.35,1.35,0,0,1,0-.16.77.77,0,0,1,.16.07c.32.25.24.57.09.87A1.61,1.61,0,0,1,200.65,33.87Z" style="fill:#929292"/><path d="M194.49,39.65a1.2,1.2,0,0,1,1.62.33,1.27,1.27,0,0,1-1.48,0C194.49,39.91,194.42,39.82,194.49,39.65Z" style="fill:#696969"/><path d="M195.81,40.35c0,.1.09.2,0,.31a1.85,1.85,0,0,1-1.14-.27c-.05,0-.11-.1-.07-.18a.43.43,0,0,1,.15,0A1.8,1.8,0,0,0,195.81,40.35Z" style="fill:#838383"/></svg>